<svg width="164" height="30" viewBox="0 0 164 30" fill="none" xmlns="http://www.w3.org/2000/svg">
<path d="M15.4697 20.3276V21.5388L17.2836 22.5799C17.6517 22.7912 17.7788 23.2608 17.5675 23.6286C17.4255 23.8761 17.1666 24.0147 16.9003 24.0147C16.7706 24.0147 16.639 23.9818 16.5185 23.9125L14.7014 22.8694L12.8842 23.9125C12.7637 23.9818 12.632 24.0147 12.5024 24.0147C12.2362 24.0147 11.9772 23.8762 11.8352 23.6286C11.6239 23.2606 11.751 22.791 12.1191 22.5799L13.9331 21.5388V20.3276C13.8764 20.287 13.8217 20.243 13.7711 20.1933L11.5612 18.0196C11.1757 17.6404 11.0589 17.0721 11.2638 16.5716C11.4687 16.0711 11.9506 15.7478 12.4913 15.7478H16.9114C17.4522 15.7478 17.934 16.0711 18.1389 16.5716C18.3438 17.0721 18.227 17.6404 17.8414 18.0196L15.6316 20.1934C15.581 20.2432 15.5264 20.2872 15.4697 20.3276ZM27.131 9.31807C27.9789 11.5218 30.6467 19.3095 27.6225 23.0628C24.6962 26.6951 19.9027 27.9512 17.8558 28.4874C17.541 28.5698 17.2693 28.6411 17.1035 28.6951C15.6961 29.1528 14.7989 29.1659 14.7011 29.1659C14.6034 29.1659 13.706 29.1527 12.2984 28.6951C12.1329 28.6411 11.861 28.57 11.5463 28.4874C9.49941 27.9512 4.7059 26.6951 1.7796 23.0628C-1.2446 19.3094 1.42334 11.5218 2.27111 9.31807C1.44962 8.67959 0 7.26923 0 5.26495C0 2.65706 2.20671 0 4.3727 0C4.40144 0 4.43002 0.000461 4.45876 0.00153667C5.88979 0.0508639 7.08321 1.54605 7.71012 2.51753C8.23006 2.18346 8.96563 1.83264 9.76099 1.83264H19.6416C20.4369 1.83264 21.1725 2.18346 21.6924 2.51753C22.3193 1.54605 23.5129 0.0508639 24.9439 0.00153667C24.9728 0.000461 25.0011 0 25.03 0C27.1958 0 29.4025 2.65706 29.4025 5.26495C29.4025 7.26923 27.9529 8.67959 27.131 9.31807ZM9.64157 13.3309C10.6536 13.3309 11.5411 12.6473 11.7999 11.6683C11.8855 11.3449 11.7518 11.0032 11.4694 10.8237L9.11395 9.32576C8.831 9.14581 8.46475 9.17009 8.20793 9.38507C7.69921 9.81104 7.40766 10.4352 7.40766 11.0975C7.40766 12.329 8.40988 13.3309 9.64157 13.3309ZM20.0787 19.7718C20.0787 17.6286 19.1261 15.8339 17.2473 14.4375C16.5075 13.8877 15.627 13.5969 14.7014 13.5969C13.7757 13.5969 12.8952 13.8877 12.1554 14.4375C10.2766 15.8339 9.32404 17.6286 9.32404 19.7718C9.32404 23.1003 11.641 24.5238 13.5847 25.1317C14.3089 25.358 15.094 25.358 15.8182 25.1317C17.7616 24.5238 20.0787 23.1005 20.0787 19.7718ZM21.9949 11.0974C21.9949 10.4351 21.7033 9.81104 21.1946 9.38492C20.9378 9.16994 20.5712 9.14551 20.2886 9.3256L17.9331 10.8236C17.6508 11.003 17.5171 11.3448 17.6027 11.6681C17.8615 12.6471 18.7489 13.3308 19.761 13.3308C20.9928 13.3309 21.9949 12.329 21.9949 11.0974Z" fill="#4B6067"/>
<path d="M52.5365 17.0981L52.2497 15.9252C52.5973 15.873 53.4141 15.7948 54.7002 15.6906C55.9863 15.5689 56.7944 15.4734 57.1246 15.4039V23.6924L55.0912 24.1094C55.0739 23.9356 55.0652 23.5273 55.0652 22.8844C55.0652 22.2241 55.0565 21.7984 55.0391 21.6072C55.0391 21.642 54.9783 21.7462 54.8566 21.92C54.735 22.0764 54.5438 22.2762 54.2831 22.5195C54.0224 22.7627 53.7183 22.9973 53.3707 23.2232C53.0231 23.4491 52.5799 23.6403 52.0412 23.7966C51.5024 23.953 50.9376 24.0312 50.3467 24.0312C46.1236 24.0312 44.012 20.7471 44.012 14.1788C44.012 13.0494 44.0989 11.9547 44.2727 10.8947C44.4465 9.81736 44.7419 8.74003 45.159 7.66269C45.5761 6.58536 46.2018 5.71654 47.036 5.05624C47.8876 4.39594 48.8956 4.06579 50.06 4.06579C51.068 4.06579 52.1107 4.23955 53.1882 4.58708C54.2657 4.93461 55.1868 5.36901 55.9515 5.8903L54.9088 7.08927C53.5532 6.08144 52.215 5.57753 50.8942 5.57753C50.0252 5.57753 49.2779 5.78605 48.6523 6.20308C48.0266 6.62011 47.5487 7.12403 47.2185 7.71482C46.9056 8.30562 46.6536 9.0528 46.4625 9.95637C46.2887 10.8599 46.1757 11.6419 46.1236 12.3022C46.0888 12.9625 46.0714 13.7357 46.0714 14.6219C46.0714 16.7418 46.4625 18.4795 47.2445 19.8348C48.0266 21.1728 49.0433 21.8418 50.2946 21.8418C50.8333 21.8418 51.3547 21.7549 51.8587 21.5812C52.3801 21.4074 52.8233 21.1989 53.1882 20.9556C53.5532 20.7123 53.8834 20.4604 54.1788 20.1997C54.4743 19.9391 54.6915 19.7219 54.8305 19.5481C54.987 19.3744 55.0652 19.2701 55.0652 19.2353V17.5672L52.5365 17.0981Z" fill="#4B6067"/>
<path d="M60.1746 11.833L59.6533 10.5037C60.1051 10.0519 60.6786 9.69573 61.3738 9.43508C62.069 9.15706 62.7555 9.01805 63.4332 9.01805C66.3703 9.01805 67.8389 11.555 67.8389 16.6289C67.8389 17.3239 67.7954 18.3492 67.7085 19.7045C67.639 21.0599 67.6042 22.0764 67.6042 22.7541C67.4652 23.2927 67.1958 23.5621 66.7961 23.5621C66.4833 23.5621 66.1965 23.4057 65.9358 23.0929C65.6752 22.7801 65.5448 22.4326 65.5448 22.0503C65.5448 21.9287 65.5535 21.8418 65.5709 21.7897C64.4934 22.8323 63.3463 23.3535 62.1298 23.3535C61.2087 23.3535 60.4006 23.0234 59.7054 22.3631C59.0276 21.6854 58.6887 20.8687 58.6887 19.913C58.6887 18.297 59.3144 16.8374 60.5657 15.5342C61.8344 14.231 63.2681 13.5793 64.867 13.5793C64.9365 13.5793 65.0061 13.588 65.0756 13.6054C65.1451 13.6054 65.2233 13.6141 65.3102 13.6315C65.4145 13.6488 65.4927 13.6575 65.5448 13.6575C65.4058 11.6245 64.5976 10.608 63.1204 10.608C62.2515 10.608 61.2695 11.0163 60.1746 11.833ZM65.623 19.9912C65.6578 18.7749 65.6752 17.8539 65.6752 17.2284C65.6752 16.7071 65.6578 15.9773 65.623 15.039H65.4145C64.1805 15.0563 63.0509 15.5168 62.0255 16.4204C61.0175 17.3239 60.5135 18.4187 60.5135 19.7045C60.5135 20.2606 60.6786 20.7036 61.0088 21.0338C61.3564 21.364 61.7735 21.529 62.2601 21.529C63.0248 21.529 64.1458 21.0164 65.623 19.9912Z" fill="#4B6067"/>
<path d="M77.9014 9.6436L79.0745 9.38295C79.0745 9.90424 79.0832 10.3126 79.1006 10.608C79.2048 14.4134 79.257 16.8895 79.257 18.0364C79.257 18.436 79.2657 19.0616 79.2831 19.913C79.3004 20.7645 79.3091 21.4074 79.3091 21.8418C79.3091 22.7975 79.2744 23.6229 79.2048 24.3179C79.1527 25.013 79.0224 25.7341 78.8138 26.4813C78.6053 27.2458 78.3185 27.8627 77.9535 28.3319C77.606 28.8184 77.102 29.2181 76.4416 29.5308C75.7985 29.8436 75.0338 30 74.1475 30C73.3828 30 72.0359 29.8871 70.1068 29.6612C70.0895 29.47 70.0547 29.2615 70.0026 29.0356C69.9678 28.8097 69.9504 28.636 69.9504 28.5143C69.9504 28.2537 69.9765 28.0452 70.0286 27.8888C70.1677 27.9061 70.7064 27.9757 71.6449 28.0973C72.6008 28.2189 73.3046 28.2797 73.7565 28.2797C74.9556 28.2797 75.8767 27.9148 76.5198 27.185C77.1628 26.4552 77.493 25.0912 77.5104 23.0929C76.6588 23.5794 75.7638 23.8227 74.8253 23.8227C74.0432 23.8227 73.3568 23.6576 72.7659 23.3275C72.175 23.0147 71.7057 22.615 71.3581 22.1285C71.0106 21.6246 70.7238 21.0251 70.4979 20.3301C70.2893 19.6176 70.1416 18.9313 70.0547 18.271C69.9852 17.6107 69.9504 16.9069 69.9504 16.1597C69.9504 14.2831 70.3588 12.7105 71.1757 11.442C72.0099 10.1736 73.2699 9.53934 74.9556 9.53934C75.9463 9.53934 76.9195 9.84343 77.8753 10.4516C77.8927 10.2778 77.9014 10.0085 77.9014 9.6436ZM77.5886 20.5646L77.6668 12.1458C77.5625 11.833 77.2323 11.5897 76.6762 11.416C76.1374 11.2248 75.5378 11.1293 74.8774 11.1293C73.939 11.1293 73.209 11.5637 72.6877 12.4325C72.1663 13.2839 71.9056 14.3265 71.9056 15.5602C71.9056 16.2032 71.9403 16.8374 72.0099 17.463C72.0794 18.0711 72.2184 18.7488 72.427 19.496C72.6355 20.2258 72.9744 20.8166 73.4436 21.2684C73.9129 21.7202 74.4951 21.9461 75.1903 21.9461C75.7116 21.9461 76.1896 21.8244 76.624 21.5812C77.0585 21.3205 77.38 20.9817 77.5886 20.5646Z" fill="#4B6067"/>
<path d="M82.3852 11.833L81.8639 10.5037C82.3157 10.0519 82.8892 9.69573 83.5844 9.43508C84.2796 9.15706 84.966 9.01805 85.6438 9.01805C88.5809 9.01805 90.0495 11.555 90.0495 16.6289C90.0495 17.3239 90.006 18.3492 89.9191 19.7045C89.8496 21.0599 89.8148 22.0764 89.8148 22.7541C89.6758 23.2927 89.4064 23.5621 89.0067 23.5621C88.6939 23.5621 88.4071 23.4057 88.1464 23.0929C87.8857 22.7801 87.7554 22.4326 87.7554 22.0503C87.7554 21.9287 87.7641 21.8418 87.7815 21.7897C86.704 22.8323 85.5569 23.3535 84.3404 23.3535C83.4193 23.3535 82.6112 23.0234 81.916 22.3631C81.2382 21.6854 80.8993 20.8687 80.8993 19.913C80.8993 18.297 81.525 16.8374 82.7763 15.5342C84.0449 14.231 85.4787 13.5793 87.0776 13.5793C87.1471 13.5793 87.2166 13.588 87.2862 13.6054C87.3557 13.6054 87.4339 13.6141 87.5208 13.6315C87.6251 13.6488 87.7033 13.6575 87.7554 13.6575C87.6164 11.6245 86.8082 10.608 85.331 10.608C84.462 10.608 83.4801 11.0163 82.3852 11.833ZM87.8336 19.9912C87.8684 18.7749 87.8857 17.8539 87.8857 17.2284C87.8857 16.7071 87.8684 15.9773 87.8336 15.039H87.6251C86.3911 15.0563 85.2615 15.5168 84.2361 16.4204C83.2281 17.3239 82.7241 18.4187 82.7241 19.7045C82.7241 20.2606 82.8892 20.7036 83.2194 21.0338C83.567 21.364 83.9841 21.529 84.4707 21.529C85.2354 21.529 86.3564 21.0164 87.8336 19.9912Z" fill="#4B6067"/>
<path d="M100.764 13.1623L99.6167 13.0841C99.2517 12.111 98.6348 11.6245 97.7658 11.6245C97.3835 11.6245 96.9751 11.7114 96.5406 11.8851C96.1235 12.0589 95.7759 12.2414 95.4978 12.4325C95.2198 12.6063 94.8548 12.8669 94.4029 13.2144C94.4029 13.4577 94.3942 14.2483 94.3769 15.5863C94.3769 16.9243 94.3856 18.41 94.4029 20.0433C94.4377 21.6767 94.4725 22.5542 94.5072 22.6759C94.3508 23.1972 94.0467 23.4578 93.5948 23.4578C93.282 23.4578 92.9778 23.3362 92.6824 23.0929C92.4043 22.8323 92.2305 22.5195 92.161 22.1546C92.4912 16.5768 92.7867 12.363 93.0474 9.51328L94.2205 9.77392L94.2987 11.5202C95.5152 10.5124 96.558 10.0085 97.4269 10.0085C98.3828 10.0085 99.1822 10.2257 99.8252 10.6601C100.486 11.0945 100.816 11.7288 100.816 12.5628C100.816 12.8235 100.798 13.0233 100.764 13.1623Z" fill="#4B6067"/>
<path d="M102.432 9.69573L103.631 9.95637C103.77 11.3812 103.892 13.6228 103.996 16.681C104.101 19.7219 104.17 21.6072 104.205 22.337C104.048 22.8757 103.744 23.145 103.292 23.145C102.98 23.145 102.675 23.0234 102.38 22.7801C102.102 22.5195 101.928 22.2067 101.859 21.8418C101.893 21.1294 101.963 19.2788 102.067 16.2901C102.171 13.2839 102.293 11.0858 102.432 9.69573ZM102.797 5.03017C103.266 5.03017 103.657 5.23869 103.97 5.65572C104.283 6.05538 104.439 6.51585 104.439 7.03714C104.439 7.41942 104.344 7.7322 104.153 7.97547C103.979 8.20136 103.736 8.31431 103.423 8.31431C102.936 8.31431 102.554 8.11448 102.276 7.71482C101.998 7.31517 101.859 6.846 101.859 6.30734C101.859 5.92506 101.937 5.62097 102.093 5.39508C102.267 5.15181 102.502 5.03017 102.797 5.03017Z" fill="#4B6067"/>
<path d="M108.35 12.6671L108.454 22.9886C108.193 23.1276 107.88 23.1972 107.516 23.1972C107.237 23.1972 106.925 23.1537 106.577 23.0668C106.629 21.9721 106.664 19.8175 106.681 16.6028C106.699 13.3882 106.768 11.0076 106.89 9.46115L108.063 9.72179L108.141 11.1814C109.062 10.2083 110.122 9.72179 111.322 9.72179C111.93 9.72179 112.416 9.76523 112.781 9.85211C113.146 9.939 113.494 10.1562 113.824 10.5037C114.172 10.8339 114.432 11.277 114.606 11.833C114.78 12.3891 114.936 13.1884 115.075 14.231C115.215 15.2562 115.31 16.4638 115.362 17.8539C115.432 19.2267 115.475 20.9643 115.493 23.0668C115.388 23.1016 115.188 23.119 114.893 23.119C114.267 23.119 113.781 23.0408 113.433 22.8844C113.364 22.6064 113.329 22.1459 113.329 21.503C113.329 21.1728 113.338 20.556 113.355 19.6524C113.39 18.7314 113.407 18.019 113.407 17.5151C113.407 16.681 113.372 15.9512 113.303 15.3257C113.251 14.7001 113.138 14.0833 112.964 13.4751C112.807 12.8669 112.555 12.3977 112.208 12.0676C111.878 11.7374 111.461 11.5724 110.957 11.5724C110.383 11.5724 109.931 11.6158 109.601 11.7027C109.288 11.7896 109.062 11.8938 108.923 12.0155C108.802 12.1371 108.61 12.3543 108.35 12.6671Z" fill="#4B6067"/>
<path d="M125.477 4.37856L126.65 4.06579C126.65 4.62183 126.659 4.93461 126.676 5.00411C127.667 4.34381 129.057 4.01366 130.847 4.01366C132.776 4.01366 134.219 4.62183 135.174 5.83818C136.13 7.03714 136.608 8.72265 136.608 10.8947C136.608 12.8235 136.139 14.4221 135.201 15.6906C134.262 16.959 132.846 17.5933 130.951 17.5933C130.639 17.5933 129.387 17.489 127.197 17.2805C127.232 18.549 127.302 20.5212 127.406 23.1972C127.25 23.7358 126.945 24.0052 126.494 24.0052C126.181 24.0052 125.877 23.8748 125.581 23.6142C125.303 23.3709 125.129 23.0668 125.06 22.7019C125.112 21.2423 125.164 18.4013 125.216 14.1788C125.286 9.95637 125.373 6.68962 125.477 4.37856ZM126.911 6.75043L127.119 14.8826C128.075 15.4039 129.179 15.6645 130.43 15.6645C131.629 15.6645 132.646 15.2127 133.48 14.3091C134.314 13.4056 134.731 12.3022 134.731 10.999C134.731 9.59147 134.297 8.32299 133.428 7.19353C132.559 6.06407 131.473 5.49934 130.169 5.49934C129.109 5.49934 128.023 5.91637 126.911 6.75043Z" fill="#4B6067"/>
<path d="M137.182 17.5412C137.182 16.8461 137.251 16.0728 137.39 15.2214C137.547 14.37 137.773 13.4751 138.068 12.5368C138.364 11.5984 138.807 10.8165 139.398 10.191C139.989 9.5654 140.675 9.25263 141.457 9.25263C143.125 9.25263 144.464 10.0085 145.472 11.5202C146.48 13.0146 146.984 14.6827 146.984 16.5246C146.984 17.3066 146.897 18.0885 146.723 18.8704C146.567 19.635 146.315 20.3909 145.967 21.1381C145.619 21.8852 145.115 22.5108 144.455 23.0147C143.812 23.5012 143.056 23.7793 142.187 23.8488C140.588 23.6403 139.354 22.9626 138.485 21.8157C137.616 20.6515 137.182 19.2267 137.182 17.5412ZM141.613 10.608C141.005 10.6775 140.493 11.2335 140.075 12.2761C139.658 13.3187 139.389 14.3352 139.267 15.3257C139.146 16.2987 139.085 17.1589 139.085 17.9061C139.085 18.8791 139.38 19.7827 139.971 20.6168C140.579 21.4335 141.257 21.8418 142.005 21.8418C142.543 21.8418 143.03 21.6333 143.464 21.2163C143.899 20.7992 144.238 20.2866 144.481 19.6784C144.742 19.0529 144.933 18.4273 145.055 17.8018C145.194 17.1762 145.263 16.6202 145.263 16.1337C145.263 14.7088 144.942 13.4664 144.299 12.4064C143.656 11.3465 142.76 10.747 141.613 10.608Z" fill="#4B6067"/>
<path d="M149.095 17.5412C149.095 16.8461 149.165 16.0728 149.304 15.2214C149.46 14.37 149.686 13.4751 149.982 12.5368C150.277 11.5984 150.72 10.8165 151.311 10.191C151.902 9.5654 152.588 9.25263 153.37 9.25263C155.039 9.25263 156.377 10.0085 157.385 11.5202C158.393 13.0146 158.897 14.6827 158.897 16.5246C158.897 17.3066 158.81 18.0885 158.636 18.8704C158.48 19.635 158.228 20.3909 157.88 21.1381C157.533 21.8852 157.029 22.5108 156.368 23.0147C155.725 23.5012 154.969 23.7793 154.1 23.8488C152.502 23.6403 151.268 22.9626 150.399 21.8157C149.53 20.6515 149.095 19.2267 149.095 17.5412ZM153.527 10.608C152.919 10.6775 152.406 11.2335 151.989 12.2761C151.572 13.3187 151.302 14.3352 151.181 15.3257C151.059 16.2987 150.998 17.1589 150.998 17.9061C150.998 18.8791 151.294 19.7827 151.885 20.6168C152.493 21.4335 153.171 21.8418 153.918 21.8418C154.457 21.8418 154.943 21.6333 155.378 21.2163C155.812 20.7992 156.151 20.2866 156.394 19.6784C156.655 19.0529 156.846 18.4273 156.968 17.8018C157.107 17.1762 157.177 16.6202 157.177 16.1337C157.177 14.7088 156.855 13.4664 156.212 12.4064C155.569 11.3465 154.674 10.747 153.527 10.608Z" fill="#4B6067"/>
<path d="M161.582 5.21263L162.781 5.47327L163.355 22.337C163.198 22.8757 162.894 23.145 162.442 23.145C162.13 23.145 161.825 23.0234 161.53 22.7801C161.252 22.5195 161.078 22.2067 161.009 21.8418L161.582 5.21263Z" fill="#4B6067"/>
</svg>
