<svg width="36" height="39" viewBox="0 0 36 39" fill="none" xmlns="http://www.w3.org/2000/svg">
<path d="M31.1343 1H5.86571C3.73486 1 2 2.748 2 4.914V30.602C2 32.768 3.73486 34.516 5.86571 34.516H27.2497L26.2503 31.001L28.664 33.262L30.9457 35.39L35 39V4.914C35 2.748 33.2651 1 31.1343 1ZM23.8554 25.814C23.8554 25.814 23.1766 24.997 22.6109 24.275C25.0811 23.572 26.024 22.014 26.024 22.014C25.2509 22.527 24.5154 22.888 23.8554 23.135C22.9126 23.534 22.0074 23.8 21.1211 23.952C19.3109 24.294 17.6514 24.199 16.2371 23.933C15.1623 23.724 14.2383 23.42 13.4651 23.116C13.0314 22.945 12.56 22.736 12.0886 22.47C12.032 22.432 11.9754 22.413 11.9189 22.375C11.8811 22.356 11.8623 22.337 11.8434 22.318C11.504 22.128 11.3154 21.995 11.3154 21.995C11.3154 21.995 12.2206 23.515 14.6154 24.237C14.0497 24.959 13.352 25.814 13.352 25.814C9.18457 25.681 7.60057 22.926 7.60057 22.926C7.60057 16.808 10.316 11.849 10.316 11.849C13.0314 9.797 15.6149 9.854 15.6149 9.854L15.8034 10.082C12.4091 11.07 10.844 12.571 10.844 12.571C10.844 12.571 11.2589 12.343 11.9566 12.02C13.9743 11.127 15.5771 10.88 16.2371 10.823C16.3503 10.804 16.4446 10.785 16.5577 10.785C17.708 10.633 19.0091 10.595 20.3669 10.747C22.1583 10.956 24.0817 11.488 26.0429 12.571C26.0429 12.571 24.5531 11.146 21.3474 10.158L21.6114 9.854C21.6114 9.854 24.1949 9.797 26.9103 11.849C26.9103 11.849 29.6257 16.808 29.6257 22.926C29.6257 22.926 28.0229 25.681 23.8554 25.814ZM15.0869 16.941C14.012 16.941 13.1634 17.891 13.1634 19.05C13.1634 20.209 14.0309 21.159 15.0869 21.159C16.1617 21.159 17.0103 20.209 17.0103 19.05C17.0291 17.891 16.1617 16.941 15.0869 16.941ZM21.9697 16.941C20.8949 16.941 20.0463 17.891 20.0463 19.05C20.0463 20.209 20.9137 21.159 21.9697 21.159C23.0446 21.159 23.8931 20.209 23.8931 19.05C23.8931 17.891 23.0446 16.941 21.9697 16.941Z" fill="#7289DA"/>
</svg>
