<svg width="24" height="24" viewBox="0 0 24 24" fill="none" xmlns="http://www.w3.org/2000/svg">
<path d="M16.6893 18.1609C16.6738 18.1609 16.6582 18.1614 16.6427 18.1624C12.0092 18.4511 9.06032 16.2433 8.15498 13.5719C7.25434 10.9145 8.2736 7.49073 12.2317 5.1067C12.2391 5.10222 12.2465 5.0976 12.2538 5.09285C12.6865 4.81122 12.7808 4.31758 12.6549 3.94117C12.5341 3.57994 12.1847 3.24652 11.6924 3.25003C11.6761 3.25014 11.6599 3.25079 11.6438 3.25194C6.44719 3.2807 2.20758 7.39034 2.20703 12.4999C2.20662 16.3484 4.51562 19.276 7.52382 20.7046C10.5199 22.1273 14.2803 22.0992 17.2666 19.9915C17.6867 19.7073 17.784 19.2174 17.6453 18.8333C17.515 18.4722 17.1618 18.1609 16.6893 18.1609Z" stroke="#00B9BD" stroke-width="1.5" stroke-miterlimit="1.32047" stroke-linejoin="round"/>
<path d="M14.33 12.6058L14.4712 12.6397L14.3784 12.7484L14.1776 12.9837L14.2011 13.2922L14.2119 13.4344L14.0841 13.3819L13.7995 13.2651L13.5148 13.3817L13.3686 13.4417L13.38 13.2922L13.4035 12.9837L13.2027 12.7484L13.1099 12.6397L13.2515 12.6052L13.549 12.5328L13.7108 12.273L13.7898 12.146L13.8664 12.2702L14.0289 12.5337L14.33 12.6058Z" stroke="#00B9BD" stroke-width="1.5"/>
<path d="M18.2657 8.59317L18.4636 8.6427L18.3238 8.8126C18.2012 8.9615 18.1407 9.15187 18.1549 9.34419L18.1675 9.516L18.0506 9.46617C17.8621 9.38583 17.649 9.38607 17.4608 9.46684L17.3246 9.52525L17.3377 9.34684C17.3519 9.15452 17.2914 8.96415 17.1688 8.81525L17.0338 8.65119L17.2125 8.60556C17.4092 8.55535 17.5771 8.42759 17.6779 8.25145L17.7403 8.14243L17.8022 8.24716C17.9042 8.41985 18.0712 8.54447 18.2657 8.59317Z" stroke="#00B9BD" stroke-width="1.5" stroke-linejoin="round"/>
</svg>
