<svg width="36" height="36" viewBox="0 0 36 36" fill="none" xmlns="http://www.w3.org/2000/svg">
<path d="M18 36C27.9411 36 36 27.9411 36 18C36 8.05887 27.9411 0 18 0C8.05887 0 0 8.05887 0 18C0 27.9411 8.05887 36 18 36Z" fill="white"/>
<path fill-rule="evenodd" clip-rule="evenodd" d="M18 36C27.9411 36 36 27.9411 36 18C36 8.05887 27.9411 0 18 0C8.05887 0 0 8.05887 0 18C0 27.9411 8.05887 36 18 36ZM29.9496 18.1903C29.9496 16.7316 28.7735 15.5477 27.3245 15.5477C26.6104 15.5477 25.9804 15.8225 25.5184 16.2876C23.7333 14.998 21.2552 14.1524 18.525 14.0467L19.7221 8.4021L23.6073 9.22659C23.6493 10.2202 24.4683 11.0236 25.4764 11.0236C26.5054 11.0236 27.3455 10.1779 27.3455 9.14203C27.3455 8.10613 26.5054 7.2605 25.4764 7.2605C24.7413 7.2605 24.1113 7.68332 23.8173 8.31754L19.4701 7.38735C19.3441 7.36621 19.2181 7.38735 19.1131 7.45077C19.008 7.51419 18.945 7.6199 18.903 7.74674L17.58 14.0467C14.7868 14.1312 12.2877 14.9557 10.4816 16.2876C10.0196 15.8436 9.36858 15.5477 8.67555 15.5477C7.22648 15.5477 6.05042 16.7316 6.05042 18.1903C6.05042 19.2684 6.68045 20.1775 7.6045 20.6003C7.56249 20.854 7.54149 21.1288 7.54149 21.4037C7.54149 25.4627 12.2247 28.7395 18.021 28.7395C23.8173 28.7395 28.5005 25.4627 28.5005 21.4037C28.5005 21.1288 28.4795 20.8751 28.4375 20.6215C29.2985 20.1986 29.9496 19.2684 29.9496 18.1903ZM11.9937 20.0718C11.9937 19.0359 12.8337 18.1903 13.8628 18.1903C14.8918 18.1903 15.7319 19.0359 15.7319 20.0718C15.7319 21.1077 14.8918 21.9533 13.8628 21.9533C12.8337 21.9533 11.9937 21.1077 11.9937 20.0718ZM22.4312 25.0399C21.1502 26.3295 18.714 26.414 18 26.414C17.286 26.414 14.8288 26.3083 13.5688 25.0399C13.3798 24.8496 13.3798 24.5325 13.5688 24.3422C13.7578 24.152 14.0728 24.152 14.2618 24.3422C15.0599 25.1456 16.7819 25.4415 18.021 25.4415C19.2601 25.4415 20.9611 25.1456 21.7802 24.3422C21.9692 24.152 22.2842 24.152 22.4732 24.3422C22.6202 24.5536 22.6202 24.8496 22.4312 25.0399ZM22.0952 21.9533C21.0661 21.9533 20.2261 21.1077 20.2261 20.0718C20.2261 19.0359 21.0661 18.1903 22.0952 18.1903C23.1242 18.1903 23.9643 19.0359 23.9643 20.0718C23.9643 21.1077 23.1242 21.9533 22.0952 21.9533Z" fill="#FF4500"/>
</svg>
