<svg width="48" height="48" viewBox="0 0 48 48" fill="none" xmlns="http://www.w3.org/2000/svg">
    <path d="M27.0146 20.9854L27.0145 20.9855L27.0223 20.9931C27.8031 21.7515 28.2764 22.8274 28.2764 24C28.2764 25.1637 27.7829 26.2463 27.0146 27.0146L27.0145 27.0145L27.007 27.0223C26.2485 27.8031 25.1726 28.2764 24 28.2764C22.8363 28.2764 21.7537 27.7829 20.9854 27.0146C20.2171 26.2463 19.7236 25.1637 19.7236 24C19.7236 22.8363 20.2171 21.7537 20.9854 20.9854L20.9855 20.9855L20.9931 20.9777C21.7515 20.1969 22.8274 19.7236 24 19.7236C25.1637 19.7236 26.2463 20.2171 27.0146 20.9854Z" stroke="#00A7AA" stroke-width="1.5" stroke-linecap="round"/>
    <path d="M24 17.4126V14M31.0897 16.9365L28.6823 19.3438M30.5872 23.9999H33.9998M28.6558 28.6559L31.0632 31.0632M24 30.5871V33.9997M16.91 31.0632L19.3174 28.6559M17.4126 23.9999H14M19.3174 19.3438L16.91 16.9365" stroke="#00A7AA" stroke-width="1.5" stroke-linecap="round"/>
    <path d="M12 1H36V-1H12V1ZM47 12V36H49V12H47ZM36 47H12V49H36V47ZM1 36V12H-1V36H1ZM12 47C5.92487 47 1 42.0751 1 36H-1C-1 43.1797 4.8203 49 12 49V47ZM47 36C47 42.0751 42.0751 47 36 47V49C43.1797 49 49 43.1797 49 36H47ZM36 1C42.0751 1 47 5.92487 47 12H49C49 4.8203 43.1797 -1 36 -1V1ZM12 -1C4.8203 -1 -1 4.8203 -1 12H1C1 5.92487 5.92487 1 12 1V-1Z" fill="#00B9BD" fill-opacity="0.1"/>
</svg>
