<svg width="36" height="36" viewBox="0 0 36 36" fill="none" xmlns="http://www.w3.org/2000/svg">
<path d="M36 18C36 27.945 27.945 36 18 36C8.055 36 0 27.945 0 18C0 8.055 8.055 0 18 0C27.945 0 36 8.055 36 18Z" fill="#2DA4D7"/>
<path d="M14.4273 26C13.8357 26 13.9418 25.7759 13.7295 25.223L12 19.6046L22.7408 13L24 13.3287L22.9532 16.1379L14.4273 26Z" fill="#C8DAEA"/>
<path d="M15 26C15.4286 26 15.6143 25.8047 15.8571 25.5814C16.2286 25.2326 21 20.6977 21 20.6977L18.0714 20L15.3571 21.6744L15 25.8605V26Z" fill="#A9C9DD"/>
<path d="M14.8263 21.5631L22.2429 26.7838C23.0857 27.2225 23.6987 27.0031 23.9132 26.038L26.9319 12.4671C27.2384 11.2826 26.4569 10.7561 25.6448 11.1071L7.93069 17.6293C6.72013 18.0973 6.73545 18.7407 7.71616 19.0186L12.2673 20.3786L22.7946 14.0465C23.2849 13.754 23.7446 13.9149 23.3769 14.2366L14.8263 21.5631Z" fill="url(#paint0_linear)"/>
<defs>
<linearGradient id="paint0_linear" x1="19.2688" y1="18.544" x2="22.8475" y2="24.544" gradientUnits="userSpaceOnUse">
<stop stop-color="#EFF7FC"/>
<stop offset="1" stop-color="white"/>
</linearGradient>
</defs>
</svg>
