<svg width="36" height="36" viewBox="0 0 36 36" fill="none" xmlns="http://www.w3.org/2000/svg">
<path d="M18 36C27.9411 36 36 27.9411 36 18C36 8.05888 27.9411 0 18 0C8.05888 0 0 8.05888 0 18C0 27.9411 8.05888 36 18 36Z" fill="#2DAAE1"/>
<path d="M29.8 11.6715C28.9614 12.0572 28.0606 12.3178 27.1136 12.435C28.0801 11.8353 28.8206 10.8849 29.1702 9.75379C28.252 10.3189 27.2472 10.7167 26.1993 10.9299C25.3466 9.98806 24.1306 9.40002 22.7852 9.40002C20.203 9.40002 18.1087 11.5692 18.1087 14.2465C18.1087 14.6259 18.1499 14.996 18.2292 15.3513C14.3419 15.1489 10.8956 13.2194 8.58875 10.2876C8.18595 11.0036 7.95539 11.8361 7.95539 12.7244C7.95539 14.4056 8.78122 15.889 10.0361 16.7579C9.29321 16.7341 8.56667 16.5263 7.91717 16.152V16.2132C7.91717 18.5616 9.52917 20.5198 11.669 20.9651C11.2759 21.0767 10.8634 21.135 10.4366 21.135C10.1349 21.135 9.84214 21.1055 9.55615 21.0497C10.1514 22.9745 11.8787 24.3756 13.9249 24.4152C12.3241 25.7155 10.3071 26.4906 8.11634 26.4906C7.73901 26.4906 7.3661 26.4673 7 26.4215C9.07022 27.797 11.5283 28.6 14.1697 28.6C22.7725 28.6 27.4774 21.215 27.4774 14.8106C27.4774 14.6004 27.473 14.3917 27.4632 14.1837C28.3798 13.4967 29.1711 12.646 29.8 11.6715Z" fill="white"/>
</svg>
