<svg width="24" height="24" viewBox="0 0 24 24" fill="none" xmlns="http://www.w3.org/2000/svg">
    <path d="M16 7.00054L11.218 7.00316C9.2306 7.01609 8 8.39708 8 10.5035V16.9998M16 7.00054V6.50354C16 4.38643 14.7593 3.00012 12.7546 3.00012L7.218 3.00316C5.2306 3.01609 4 4.39708 4 6.50354V13.4967C4 15.6138 5.23996 17.0001 7.24464 17.0001L8 16.9998M16 7.00054L16.7546 7.00012C18.7593 7.00012 20 8.38643 20 10.5035V17.4967C20 19.6032 18.7687 20.9849 16.7813 20.9978L11.2446 21.0001C9.23996 21.0001 8 19.6138 8 17.4967V16.9998" stroke="#4B6067" stroke-width="1.5" stroke-linecap="round" stroke-linejoin="round"/>
</svg>
