<svg width="1170" height="436" viewBox="0 0 1170 436" fill="none" xmlns="http://www.w3.org/2000/svg">
    <path d="M0 30C0 13.4315 13.4315 0 30 0H1140C1156.57 0 1170 13.4315 1170 30V406C1170 422.569 1156.57 436 1140 436H30C13.4315 436 0 422.569 0 406V30Z" fill="white"/>
    <path d="M43.68 63H45.816V56.616H50.508C50.668 56.616 50.864 56.608 51.096 56.592C51.328 56.576 51.556 56.552 51.78 56.52C53.172 56.304 54.232 55.704 54.96 54.72C55.688 53.728 56.052 52.544 56.052 51.168C56.052 49.792 55.688 48.612 54.96 47.628C54.24 46.636 53.18 46.032 51.78 45.816C51.556 45.776 51.328 45.752 51.096 45.744C50.872 45.728 50.676 45.72 50.508 45.72H43.68V63ZM45.816 54.588V47.748H50.436C50.588 47.748 50.76 47.756 50.952 47.772C51.152 47.788 51.34 47.816 51.516 47.856C52.348 48.04 52.948 48.46 53.316 49.116C53.684 49.764 53.868 50.448 53.868 51.168C53.868 51.888 53.684 52.576 53.316 53.232C52.948 53.88 52.348 54.296 51.516 54.48C51.34 54.52 51.152 54.548 50.952 54.564C50.76 54.58 50.588 54.588 50.436 54.588H45.816ZM58.4456 63H60.5936V56.496C60.5936 55.728 60.6976 54.988 60.9056 54.276C61.1136 53.564 61.5336 52.984 62.1656 52.536C62.6136 52.208 63.1056 52.016 63.6416 51.96C64.1856 51.904 64.6816 51.932 65.1296 52.044V50.04C64.5536 49.912 63.9216 49.912 63.2336 50.04C62.5456 50.168 61.9536 50.432 61.4576 50.832C61.0256 51.136 60.6576 51.556 60.3536 52.092V50.04H58.4456V63ZM72.6844 63.36C73.9724 63.36 75.0804 63.072 76.0084 62.496C76.9444 61.92 77.6644 61.116 78.1684 60.084C78.6804 59.052 78.9364 57.86 78.9364 56.508C78.9364 55.172 78.6844 53.992 78.1804 52.968C77.6844 51.936 76.9684 51.132 76.0324 50.556C75.0964 49.972 73.9804 49.68 72.6844 49.68C71.4204 49.68 70.3204 49.968 69.3844 50.544C68.4484 51.112 67.7244 51.908 67.2124 52.932C66.7004 53.956 66.4444 55.148 66.4444 56.508C66.4444 57.844 66.6924 59.028 67.1884 60.06C67.6924 61.092 68.4124 61.9 69.3484 62.484C70.2844 63.068 71.3964 63.36 72.6844 63.36ZM72.6844 61.332C71.3804 61.332 70.3924 60.896 69.7204 60.024C69.0484 59.144 68.7124 57.972 68.7124 56.508C68.7124 55.092 69.0364 53.94 69.6844 53.052C70.3324 52.156 71.3324 51.708 72.6844 51.708C74.0124 51.708 75.0084 52.144 75.6724 53.016C76.3364 53.888 76.6684 55.052 76.6684 56.508C76.6684 57.932 76.3364 59.092 75.6724 59.988C75.0164 60.884 74.0204 61.332 72.6844 61.332ZM82.8144 63H84.9504V51.804H88.3584V50.04H84.9504V48.996C84.9504 47.756 85.5784 47.136 86.8344 47.136H88.3584V45.36H86.7144C86.2264 45.36 85.7024 45.408 85.1424 45.504C84.5824 45.592 84.0784 45.88 83.6304 46.368C83.2464 46.784 83.0144 47.26 82.9344 47.796C82.8544 48.324 82.8144 48.836 82.8144 49.332V50.04H80.6184V51.804H82.8144V63ZM90.8784 47.748H93.0144V45.54H90.8784V47.748ZM90.8784 63H93.0144V50.04H90.8784V63ZM103.861 63V61.164C102.973 61.3 102.213 61.324 101.581 61.236C100.957 61.148 100.501 60.848 100.213 60.336C100.061 60.064 99.9773 59.744 99.9613 59.376C99.9533 59 99.9493 58.544 99.9493 58.008V51.804H103.861V50.04H99.9493V46.44H97.8133V50.04H95.1853V51.804H97.8133V58.104C97.8133 58.776 97.8213 59.376 97.8373 59.904C97.8613 60.424 98.0013 60.936 98.2573 61.44C98.5613 62.024 99.0053 62.456 99.5893 62.736C100.173 63.008 100.837 63.156 101.581 63.18C102.333 63.212 103.093 63.152 103.861 63ZM110.177 63.36C112.337 63.36 113.937 62.568 114.977 60.984V63H116.872V54.984C116.872 54.472 116.849 53.984 116.801 53.52C116.753 53.048 116.637 52.612 116.453 52.212C116.085 51.364 115.477 50.732 114.629 50.316C113.781 49.892 112.773 49.68 111.605 49.68C110.141 49.68 108.957 50.004 108.053 50.652C107.157 51.3 106.557 52.192 106.253 53.328L108.281 53.94C108.513 53.148 108.925 52.572 109.517 52.212C110.109 51.852 110.797 51.672 111.581 51.672C112.701 51.672 113.505 51.924 113.993 52.428C114.489 52.924 114.749 53.688 114.773 54.72C113.813 54.856 112.805 55 111.749 55.152C110.701 55.296 109.769 55.476 108.953 55.692C107.969 55.98 107.193 56.432 106.625 57.048C106.057 57.656 105.773 58.472 105.773 59.496C105.773 60.192 105.937 60.832 106.265 61.416C106.601 62 107.093 62.472 107.741 62.832C108.397 63.184 109.209 63.36 110.177 63.36ZM110.501 61.572C109.581 61.572 108.917 61.36 108.509 60.936C108.101 60.504 107.896 60.02 107.896 59.484C107.896 58.876 108.097 58.412 108.497 58.092C108.905 57.764 109.377 57.516 109.913 57.348C110.545 57.172 111.281 57.024 112.121 56.904C112.961 56.784 113.837 56.664 114.749 56.544C114.749 56.84 114.733 57.176 114.701 57.552C114.677 57.928 114.621 58.272 114.533 58.584C114.381 59.384 113.957 60.084 113.261 60.684C112.573 61.276 111.653 61.572 110.501 61.572ZM119.981 63H121.889V61.536C122.361 62.104 122.933 62.552 123.605 62.88C124.285 63.2 125.065 63.36 125.945 63.36C127.153 63.36 128.189 63.06 129.053 62.46C129.925 61.852 130.593 61.032 131.057 60C131.521 58.968 131.753 57.804 131.753 56.508C131.753 55.212 131.521 54.048 131.057 53.016C130.593 51.984 129.925 51.172 129.053 50.58C128.189 49.98 127.157 49.68 125.957 49.68C125.149 49.68 124.425 49.816 123.785 50.088C123.145 50.36 122.593 50.736 122.129 51.216V45.72H119.981V63ZM125.681 61.404C124.377 61.404 123.417 60.944 122.801 60.024C122.193 59.104 121.889 57.932 121.889 56.508C121.889 55.076 122.193 53.908 122.801 53.004C123.417 52.092 124.357 51.636 125.621 51.636C126.501 51.636 127.225 51.852 127.793 52.284C128.369 52.716 128.793 53.3 129.065 54.036C129.345 54.772 129.485 55.596 129.485 56.508C129.485 57.428 129.345 58.26 129.065 59.004C128.785 59.74 128.365 60.324 127.805 60.756C127.245 61.188 126.537 61.404 125.681 61.404ZM134.623 47.748H136.759V45.54H134.623V47.748ZM134.623 63H136.759V50.04H134.623V63ZM140.6 63H142.736V45.36H140.6V63ZM146.576 47.748H148.712V45.54H146.576V47.748ZM146.576 63H148.712V50.04H146.576V63ZM159.549 63V61.164C158.661 61.3 157.901 61.324 157.269 61.236C156.645 61.148 156.189 60.848 155.901 60.336C155.749 60.064 155.665 59.744 155.649 59.376C155.641 59 155.637 58.544 155.637 58.008V51.804H159.549V50.04H155.637V46.44H153.501V50.04H150.873V51.804H153.501V58.104C153.501 58.776 153.509 59.376 153.525 59.904C153.549 60.424 153.689 60.936 153.945 61.44C154.249 62.024 154.693 62.456 155.277 62.736C155.861 63.008 156.525 63.156 157.269 63.18C158.021 63.212 158.781 63.152 159.549 63ZM163.628 68.76H165.704L172.76 50.04H170.588L166.796 60.24L162.752 50.04H160.508L165.764 62.952L163.628 68.76ZM179.535 68.76H181.683V61.8C182.147 62.288 182.695 62.672 183.327 62.952C183.967 63.224 184.691 63.36 185.499 63.36C186.707 63.36 187.743 63.06 188.607 62.46C189.479 61.852 190.147 61.032 190.611 60C191.075 58.968 191.307 57.804 191.307 56.508C191.307 55.212 191.075 54.048 190.611 53.016C190.147 51.984 189.479 51.172 188.607 50.58C187.743 49.98 186.711 49.68 185.511 49.68C184.631 49.68 183.851 49.84 183.171 50.16C182.491 50.48 181.915 50.924 181.443 51.492V50.04H179.535V68.76ZM185.235 61.404C183.931 61.404 182.971 60.944 182.355 60.024C181.747 59.104 181.443 57.932 181.443 56.508C181.443 55.076 181.747 53.908 182.355 53.004C182.971 52.092 183.911 51.636 185.175 51.636C186.055 51.636 186.779 51.852 187.347 52.284C187.923 52.716 188.347 53.3 188.619 54.036C188.899 54.772 189.039 55.596 189.039 56.508C189.039 57.428 188.899 58.26 188.619 59.004C188.339 59.74 187.919 60.324 187.359 60.756C186.799 61.188 186.091 61.404 185.235 61.404ZM199.554 63.36C200.81 63.36 201.942 63.048 202.95 62.424C203.958 61.792 204.718 60.904 205.23 59.76L203.178 59.052C202.434 60.572 201.194 61.332 199.458 61.332C198.266 61.332 197.33 60.968 196.65 60.24C195.978 59.504 195.598 58.464 195.51 57.12H205.446C205.51 55.584 205.31 54.26 204.846 53.148C204.39 52.036 203.702 51.18 202.782 50.58C201.87 49.98 200.762 49.68 199.458 49.68C198.202 49.68 197.106 49.964 196.17 50.532C195.234 51.092 194.506 51.892 193.986 52.932C193.474 53.964 193.218 55.188 193.218 56.604C193.218 57.956 193.478 59.14 193.998 60.156C194.526 61.164 195.266 61.952 196.218 62.52C197.17 63.08 198.282 63.36 199.554 63.36ZM199.53 51.6C201.73 51.6 202.962 52.868 203.226 55.404H195.546C195.698 54.172 196.11 53.232 196.782 52.584C197.454 51.928 198.37 51.6 199.53 51.6ZM208.118 63H210.266V56.496C210.266 55.728 210.37 54.988 210.578 54.276C210.786 53.564 211.206 52.984 211.838 52.536C212.286 52.208 212.778 52.016 213.314 51.96C213.858 51.904 214.354 51.932 214.802 52.044V50.04C214.226 49.912 213.594 49.912 212.906 50.04C212.218 50.168 211.626 50.432 211.13 50.832C210.698 51.136 210.33 51.556 210.026 52.092V50.04H208.118V63ZM224.887 63H227.059V45.72H224.887L221.635 47.664V50.052L224.887 48.084V63ZM237.457 63.36C238.577 63.36 239.577 63.108 240.457 62.604C241.337 62.1 242.029 61.408 242.533 60.528C243.037 59.648 243.289 58.648 243.289 57.528V51.192C243.289 50.072 243.037 49.072 242.533 48.192C242.029 47.312 241.337 46.62 240.457 46.116C239.577 45.612 238.577 45.36 237.457 45.36C236.337 45.36 235.337 45.612 234.457 46.116C233.577 46.62 232.885 47.312 232.381 48.192C231.877 49.072 231.625 50.072 231.625 51.192V57.528C231.625 58.648 231.877 59.648 232.381 60.528C232.885 61.408 233.577 62.1 234.457 62.604C235.337 63.108 236.337 63.36 237.457 63.36ZM237.457 61.308C236.785 61.308 236.169 61.144 235.609 60.816C235.057 60.488 234.617 60.048 234.289 59.496C233.961 58.936 233.797 58.32 233.797 57.648V51.06C233.797 50.38 233.961 49.764 234.289 49.212C234.617 48.66 235.057 48.22 235.609 47.892C236.169 47.564 236.785 47.4 237.457 47.4C238.137 47.4 238.753 47.564 239.305 47.892C239.857 48.22 240.297 48.66 240.625 49.212C240.953 49.764 241.117 50.38 241.117 51.06V57.648C241.117 58.32 240.953 58.936 240.625 59.496C240.297 60.048 239.857 60.488 239.305 60.816C238.753 61.144 238.137 61.308 237.457 61.308ZM252.481 63.36C253.601 63.36 254.601 63.108 255.481 62.604C256.361 62.1 257.053 61.408 257.557 60.528C258.061 59.648 258.313 58.648 258.313 57.528V51.192C258.313 50.072 258.061 49.072 257.557 48.192C257.053 47.312 256.361 46.62 255.481 46.116C254.601 45.612 253.601 45.36 252.481 45.36C251.361 45.36 250.361 45.612 249.481 46.116C248.601 46.62 247.909 47.312 247.405 48.192C246.901 49.072 246.649 50.072 246.649 51.192V57.528C246.649 58.648 246.901 59.648 247.405 60.528C247.909 61.408 248.601 62.1 249.481 62.604C250.361 63.108 251.361 63.36 252.481 63.36ZM252.481 61.308C251.809 61.308 251.193 61.144 250.633 60.816C250.081 60.488 249.641 60.048 249.313 59.496C248.985 58.936 248.821 58.32 248.821 57.648V51.06C248.821 50.38 248.985 49.764 249.313 49.212C249.641 48.66 250.081 48.22 250.633 47.892C251.193 47.564 251.809 47.4 252.481 47.4C253.161 47.4 253.777 47.564 254.329 47.892C254.881 48.22 255.321 48.66 255.649 49.212C255.977 49.764 256.141 50.38 256.141 51.06V57.648C256.141 58.32 255.977 58.936 255.649 59.496C255.321 60.048 254.881 60.488 254.329 60.816C253.777 61.144 253.161 61.308 252.481 61.308ZM270.929 63H273.065V47.748H278.957V45.72H265.037V47.748H270.929V63ZM281.108 47.748H283.244V45.54H281.108V47.748ZM281.108 63H283.244V50.04H281.108V63ZM286.844 63H294.176C295.76 63 297.012 62.556 297.932 61.668C298.852 60.772 299.312 59.568 299.312 58.056C299.312 57.096 299.072 56.252 298.592 55.524C298.112 54.788 297.432 54.232 296.552 53.856C297.152 53.504 297.624 53.016 297.968 52.392C298.312 51.768 298.484 51.06 298.484 50.268C298.484 49.468 298.288 48.724 297.896 48.036C297.512 47.34 296.952 46.78 296.216 46.356C295.488 45.932 294.608 45.72 293.576 45.72H286.844V63ZM289.004 52.932V47.736H293.552C294.36 47.736 295.016 47.972 295.52 48.444C296.032 48.916 296.288 49.524 296.288 50.268C296.288 51.076 296.02 51.724 295.484 52.212C294.956 52.692 294.312 52.932 293.552 52.932H289.004ZM289.004 60.96V54.948H294.008C294.928 54.948 295.676 55.248 296.252 55.848C296.828 56.44 297.116 57.172 297.116 58.044C297.116 58.956 296.796 59.672 296.156 60.192C295.516 60.704 294.72 60.96 293.768 60.96H289.004Z" fill="#4B6067"/>
    <path d="M878 54C878 47.3726 883.373 42 890 42H940V90H890C883.373 90 878 84.6274 878 78V54Z" fill="#00B9BD" fill-opacity="0.1"/>
    <path d="M898.387 74H900.125L905.944 59.733V58.16H896.88V59.733H904.217L898.387 74ZM908.583 74H913.39C913.544 74 913.83 73.9963 914.248 73.989C914.666 73.9817 915.058 73.9523 915.425 73.901C916.628 73.7323 917.632 73.2887 918.439 72.57C919.246 71.844 919.851 70.92 920.254 69.798C920.657 68.6687 920.859 67.4293 920.859 66.08C920.859 64.7307 920.657 63.495 920.254 62.373C919.851 61.251 919.246 60.327 918.439 59.601C917.632 58.8677 916.628 58.4203 915.425 58.259C915.044 58.2077 914.651 58.1783 914.248 58.171C913.845 58.1637 913.559 58.16 913.39 58.16H908.583V74ZM910.255 72.449V59.711H913.39C913.676 59.711 913.995 59.722 914.347 59.744C914.706 59.7587 915.011 59.7917 915.26 59.843C916.177 60.0043 916.921 60.3783 917.493 60.965C918.065 61.5443 918.483 62.274 918.747 63.154C919.011 64.034 919.143 65.0093 919.143 66.08C919.143 67.1287 919.011 68.0967 918.747 68.984C918.49 69.8713 918.076 70.6083 917.504 71.195C916.932 71.7817 916.184 72.1557 915.26 72.317C915.011 72.3683 914.71 72.405 914.358 72.427C914.013 72.4417 913.691 72.449 913.39 72.449H910.255Z" fill="#00B9BD"/>
    <rect width="64" height="48" transform="translate(940 42)" fill="#00B9BD"/>
    <path d="M962.301 74H963.94V58.16H962.301L959.32 59.942V61.757L962.301 59.964V74ZM968.112 74H969.663V61.768L975.295 74H976.34L981.983 61.768V73.989H983.523V58.16H982.016L975.823 71.481L969.597 58.16H968.112V74Z" fill="white"/>
    <rect width="67" height="48" transform="translate(1004 42)" fill="#00B9BD" fill-opacity="0.1"/>
    <path d="M1027.8 74.319C1028.77 74.319 1029.64 74.1027 1030.39 73.67C1031.16 73.23 1031.75 72.625 1032.19 71.855C1032.63 71.0777 1032.85 70.183 1032.85 69.171C1032.85 68.181 1032.64 67.3083 1032.24 66.553C1031.84 65.7977 1031.27 65.211 1030.55 64.793C1029.82 64.3677 1028.98 64.1587 1028.02 64.166L1032.66 59.733V58.16H1023.51V59.711H1030.6L1025.16 64.738L1025.97 66.025C1026.24 65.893 1026.54 65.7867 1026.85 65.706C1027.17 65.6253 1027.47 65.585 1027.75 65.585C1028.78 65.585 1029.6 65.915 1030.23 66.575C1030.86 67.2277 1031.17 68.093 1031.17 69.171C1031.17 70.2343 1030.87 71.0923 1030.26 71.745C1029.66 72.3977 1028.83 72.735 1027.78 72.757C1027.02 72.7717 1026.34 72.5773 1025.73 72.174C1025.12 71.7707 1024.68 71.1767 1024.42 70.392L1022.88 70.854C1023.22 71.9247 1023.83 72.7717 1024.71 73.395C1025.59 74.011 1026.62 74.319 1027.8 74.319ZM1035.7 74H1037.25V61.768L1042.88 74H1043.93L1049.57 61.768V73.989H1051.11V58.16H1049.6L1043.41 71.481L1037.19 58.16H1035.7V74Z" fill="#00B9BD"/>
    <path d="M1071 42H1116C1122.63 42 1128 47.3726 1128 54V78C1128 84.6274 1122.63 90 1116 90H1071V42Z" fill="#00B9BD" fill-opacity="0.1"/>
    <path d="M1093.3 74H1094.94V58.16H1093.3L1090.32 59.942V61.757L1093.3 59.964V74ZM1102.89 74H1104.51V67.367L1109.8 58.16H1107.93L1103.7 65.519L1099.44 58.16H1097.57L1102.89 67.367V74Z" fill="#00B9BD"/>
    <path d="M46.4038 136H48.0328V123.04H46.4038L43.9648 124.498V126.289L46.4038 124.813V136ZM55.8313 136.27C56.6713 136.27 57.4213 136.081 58.0813 135.703C58.7413 135.325 59.2603 134.806 59.6383 134.146C60.0163 133.486 60.2053 132.736 60.2053 131.896V127.144C60.2053 126.304 60.0163 125.554 59.6383 124.894C59.2603 124.234 58.7413 123.715 58.0813 123.337C57.4213 122.959 56.6713 122.77 55.8313 122.77C54.9913 122.77 54.2413 122.959 53.5813 123.337C52.9213 123.715 52.4023 124.234 52.0243 124.894C51.6463 125.554 51.4573 126.304 51.4573 127.144V131.896C51.4573 132.736 51.6463 133.486 52.0243 134.146C52.4023 134.806 52.9213 135.325 53.5813 135.703C54.2413 136.081 54.9913 136.27 55.8313 136.27ZM55.8313 134.731C55.3273 134.731 54.8653 134.608 54.4453 134.362C54.0313 134.116 53.7013 133.786 53.4553 133.372C53.2093 132.952 53.0863 132.49 53.0863 131.986V127.045C53.0863 126.535 53.2093 126.073 53.4553 125.659C53.7013 125.245 54.0313 124.915 54.4453 124.669C54.8653 124.423 55.3273 124.3 55.8313 124.3C56.3413 124.3 56.8033 124.423 57.2173 124.669C57.6313 124.915 57.9613 125.245 58.2073 125.659C58.4533 126.073 58.5763 126.535 58.5763 127.045V131.986C58.5763 132.49 58.4533 132.952 58.2073 133.372C57.9613 133.786 57.6313 134.116 57.2173 134.362C56.8033 134.608 56.3413 134.731 55.8313 134.731ZM67.0988 136.27C67.9388 136.27 68.6888 136.081 69.3488 135.703C70.0088 135.325 70.5278 134.806 70.9058 134.146C71.2838 133.486 71.4728 132.736 71.4728 131.896V127.144C71.4728 126.304 71.2838 125.554 70.9058 124.894C70.5278 124.234 70.0088 123.715 69.3488 123.337C68.6888 122.959 67.9388 122.77 67.0988 122.77C66.2588 122.77 65.5088 122.959 64.8488 123.337C64.1888 123.715 63.6698 124.234 63.2918 124.894C62.9138 125.554 62.7248 126.304 62.7248 127.144V131.896C62.7248 132.736 62.9138 133.486 63.2918 134.146C63.6698 134.806 64.1888 135.325 64.8488 135.703C65.5088 136.081 66.2588 136.27 67.0988 136.27ZM67.0988 134.731C66.5948 134.731 66.1328 134.608 65.7128 134.362C65.2988 134.116 64.9688 133.786 64.7228 133.372C64.4768 132.952 64.3538 132.49 64.3538 131.986V127.045C64.3538 126.535 64.4768 126.073 64.7228 125.659C64.9688 125.245 65.2988 124.915 65.7128 124.669C66.1328 124.423 66.5948 124.3 67.0988 124.3C67.6088 124.3 68.0708 124.423 68.4848 124.669C68.8988 124.915 69.2288 125.245 69.4748 125.659C69.7208 126.073 69.8438 126.535 69.8438 127.045V131.986C69.8438 132.49 69.7208 132.952 69.4748 133.372C69.2288 133.786 68.8988 134.116 68.4848 134.362C68.0708 134.608 67.6088 134.731 67.0988 134.731ZM78.3664 136.27C79.2064 136.27 79.9564 136.081 80.6164 135.703C81.2764 135.325 81.7954 134.806 82.1734 134.146C82.5514 133.486 82.7404 132.736 82.7404 131.896V127.144C82.7404 126.304 82.5514 125.554 82.1734 124.894C81.7954 124.234 81.2764 123.715 80.6164 123.337C79.9564 122.959 79.2064 122.77 78.3664 122.77C77.5264 122.77 76.7764 122.959 76.1164 123.337C75.4564 123.715 74.9374 124.234 74.5594 124.894C74.1814 125.554 73.9924 126.304 73.9924 127.144V131.896C73.9924 132.736 74.1814 133.486 74.5594 134.146C74.9374 134.806 75.4564 135.325 76.1164 135.703C76.7764 136.081 77.5264 136.27 78.3664 136.27ZM78.3664 134.731C77.8624 134.731 77.4004 134.608 76.9804 134.362C76.5664 134.116 76.2364 133.786 75.9904 133.372C75.7444 132.952 75.6214 132.49 75.6214 131.986V127.045C75.6214 126.535 75.7444 126.073 75.9904 125.659C76.2364 125.245 76.5664 124.915 76.9804 124.669C77.4004 124.423 77.8624 124.3 78.3664 124.3C78.8764 124.3 79.3384 124.423 79.7524 124.669C80.1664 124.915 80.4964 125.245 80.7424 125.659C80.9884 126.073 81.1114 126.535 81.1114 127.045V131.986C81.1114 132.49 80.9884 132.952 80.7424 133.372C80.4964 133.786 80.1664 134.116 79.7524 134.362C79.3384 134.608 78.8764 134.731 78.3664 134.731Z" fill="#4B5067" fill-opacity="0.6"/>
    <path d="M55.0065 190H56.7345L61.3875 178.579V177.04H53.7825V178.579H59.6685L55.0065 190ZM67.385 190.27C68.189 190.27 68.927 190.075 69.599 189.685C70.277 189.289 70.82 188.764 71.228 188.11C71.636 187.45 71.84 186.721 71.84 185.923C71.84 185.119 71.654 184.396 71.282 183.754C70.91 183.106 70.406 182.596 69.77 182.224C69.134 181.846 68.414 181.657 67.61 181.657C66.698 181.657 65.891 181.936 65.189 182.494L65.423 178.561H70.94V177.04H63.983L63.587 183.817L65.009 184.357C65.243 184.021 65.561 183.733 65.963 183.493C66.371 183.253 66.86 183.133 67.43 183.133C67.934 183.133 68.399 183.256 68.825 183.502C69.251 183.748 69.59 184.084 69.842 184.51C70.1 184.93 70.229 185.401 70.229 185.923C70.229 186.427 70.103 186.892 69.851 187.318C69.605 187.738 69.272 188.077 68.852 188.335C68.432 188.587 67.958 188.713 67.43 188.713C66.83 188.713 66.269 188.527 65.747 188.155C65.231 187.777 64.892 187.27 64.73 186.634L63.191 187.048C63.365 187.678 63.653 188.236 64.055 188.722C64.463 189.208 64.952 189.589 65.522 189.865C66.098 190.135 66.719 190.27 67.385 190.27ZM78.3664 190.27C79.2064 190.27 79.9564 190.081 80.6164 189.703C81.2764 189.325 81.7954 188.806 82.1734 188.146C82.5514 187.486 82.7404 186.736 82.7404 185.896V181.144C82.7404 180.304 82.5514 179.554 82.1734 178.894C81.7954 178.234 81.2764 177.715 80.6164 177.337C79.9564 176.959 79.2064 176.77 78.3664 176.77C77.5264 176.77 76.7764 176.959 76.1164 177.337C75.4564 177.715 74.9374 178.234 74.5594 178.894C74.1814 179.554 73.9924 180.304 73.9924 181.144V185.896C73.9924 186.736 74.1814 187.486 74.5594 188.146C74.9374 188.806 75.4564 189.325 76.1164 189.703C76.7764 190.081 77.5264 190.27 78.3664 190.27ZM78.3664 188.731C77.8624 188.731 77.4004 188.608 76.9804 188.362C76.5664 188.116 76.2364 187.786 75.9904 187.372C75.7444 186.952 75.6214 186.49 75.6214 185.986V181.045C75.6214 180.535 75.7444 180.073 75.9904 179.659C76.2364 179.245 76.5664 178.915 76.9804 178.669C77.4004 178.423 77.8624 178.3 78.3664 178.3C78.8764 178.3 79.3384 178.423 79.7524 178.669C80.1664 178.915 80.4964 179.245 80.7424 179.659C80.9884 180.073 81.1114 180.535 81.1114 181.045V185.986C81.1114 186.49 80.9884 186.952 80.7424 187.372C80.4964 187.786 80.1664 188.116 79.7524 188.362C79.3384 188.608 78.8764 188.731 78.3664 188.731Z" fill="#4B5067" fill-opacity="0.6"/>
    <path d="M56.1174 244.27C56.9214 244.27 57.6594 244.075 58.3314 243.685C59.0094 243.289 59.5524 242.764 59.9604 242.11C60.3684 241.45 60.5724 240.721 60.5724 239.923C60.5724 239.119 60.3864 238.396 60.0144 237.754C59.6424 237.106 59.1384 236.596 58.5024 236.224C57.8664 235.846 57.1464 235.657 56.3424 235.657C55.4304 235.657 54.6234 235.936 53.9214 236.494L54.1554 232.561H59.6724V231.04H52.7154L52.3194 237.817L53.7414 238.357C53.9754 238.021 54.2934 237.733 54.6954 237.493C55.1034 237.253 55.5924 237.133 56.1624 237.133C56.6664 237.133 57.1314 237.256 57.5574 237.502C57.9834 237.748 58.3224 238.084 58.5744 238.51C58.8324 238.93 58.9614 239.401 58.9614 239.923C58.9614 240.427 58.8354 240.892 58.5834 241.318C58.3374 241.738 58.0044 242.077 57.5844 242.335C57.1644 242.587 56.6904 242.713 56.1624 242.713C55.5624 242.713 55.0014 242.527 54.4794 242.155C53.9634 241.777 53.6244 241.27 53.4624 240.634L51.9234 241.048C52.0974 241.678 52.3854 242.236 52.7874 242.722C53.1954 243.208 53.6844 243.589 54.2544 243.865C54.8304 244.135 55.4514 244.27 56.1174 244.27ZM67.0988 244.27C67.9388 244.27 68.6888 244.081 69.3488 243.703C70.0088 243.325 70.5278 242.806 70.9058 242.146C71.2838 241.486 71.4728 240.736 71.4728 239.896V235.144C71.4728 234.304 71.2838 233.554 70.9058 232.894C70.5278 232.234 70.0088 231.715 69.3488 231.337C68.6888 230.959 67.9388 230.77 67.0988 230.77C66.2588 230.77 65.5088 230.959 64.8488 231.337C64.1888 231.715 63.6698 232.234 63.2918 232.894C62.9138 233.554 62.7248 234.304 62.7248 235.144V239.896C62.7248 240.736 62.9138 241.486 63.2918 242.146C63.6698 242.806 64.1888 243.325 64.8488 243.703C65.5088 244.081 66.2588 244.27 67.0988 244.27ZM67.0988 242.731C66.5948 242.731 66.1328 242.608 65.7128 242.362C65.2988 242.116 64.9688 241.786 64.7228 241.372C64.4768 240.952 64.3538 240.49 64.3538 239.986V235.045C64.3538 234.535 64.4768 234.073 64.7228 233.659C64.9688 233.245 65.2988 232.915 65.7128 232.669C66.1328 232.423 66.5948 232.3 67.0988 232.3C67.6088 232.3 68.0708 232.423 68.4848 232.669C68.8988 232.915 69.2288 233.245 69.4748 233.659C69.7208 234.073 69.8438 234.535 69.8438 235.045V239.986C69.8438 240.49 69.7208 240.952 69.4748 241.372C69.2288 241.786 68.8988 242.116 68.4848 242.362C68.0708 242.608 67.6088 242.731 67.0988 242.731ZM78.3664 244.27C79.2064 244.27 79.9564 244.081 80.6164 243.703C81.2764 243.325 81.7954 242.806 82.1734 242.146C82.5514 241.486 82.7404 240.736 82.7404 239.896V235.144C82.7404 234.304 82.5514 233.554 82.1734 232.894C81.7954 232.234 81.2764 231.715 80.6164 231.337C79.9564 230.959 79.2064 230.77 78.3664 230.77C77.5264 230.77 76.7764 230.959 76.1164 231.337C75.4564 231.715 74.9374 232.234 74.5594 232.894C74.1814 233.554 73.9924 234.304 73.9924 235.144V239.896C73.9924 240.736 74.1814 241.486 74.5594 242.146C74.9374 242.806 75.4564 243.325 76.1164 243.703C76.7764 244.081 77.5264 244.27 78.3664 244.27ZM78.3664 242.731C77.8624 242.731 77.4004 242.608 76.9804 242.362C76.5664 242.116 76.2364 241.786 75.9904 241.372C75.7444 240.952 75.6214 240.49 75.6214 239.986V235.045C75.6214 234.535 75.7444 234.073 75.9904 233.659C76.2364 233.245 76.5664 232.915 76.9804 232.669C77.4004 232.423 77.8624 232.3 78.3664 232.3C78.8764 232.3 79.3384 232.423 79.7524 232.669C80.1664 232.915 80.4964 233.245 80.7424 233.659C80.9884 234.073 81.1114 234.535 81.1114 235.045V239.986C81.1114 240.49 80.9884 240.952 80.7424 241.372C80.4964 241.786 80.1664 242.116 79.7524 242.362C79.3384 242.608 78.8764 242.731 78.3664 242.731Z" fill="#4B5067" fill-opacity="0.6"/>
    <path d="M52.7848 297.991H61.3978V296.461H55.2508L59.4268 292.708C59.8708 292.312 60.2368 291.94 60.5248 291.592C60.8188 291.238 61.0378 290.854 61.1818 290.44C61.3258 290.026 61.3978 289.537 61.3978 288.973C61.3978 288.175 61.2118 287.461 60.8398 286.831C60.4738 286.195 59.9728 285.694 59.3368 285.328C58.7008 284.956 57.9808 284.77 57.1768 284.77C56.3488 284.77 55.6078 284.95 54.9538 285.31C54.2998 285.664 53.7838 286.156 53.4058 286.786C53.0338 287.41 52.8478 288.13 52.8478 288.946H54.4858C54.4798 288.472 54.5908 288.037 54.8188 287.641C55.0528 287.239 55.3708 286.915 55.7728 286.669C56.1748 286.423 56.6338 286.3 57.1498 286.3C57.6478 286.3 58.0918 286.417 58.4818 286.651C58.8778 286.885 59.1898 287.203 59.4178 287.605C59.6458 288.007 59.7598 288.457 59.7598 288.955C59.7598 289.363 59.6758 289.762 59.5078 290.152C59.3458 290.542 59.0248 290.95 58.5448 291.376L52.7938 296.551L52.7848 297.991ZM67.385 298.27C68.189 298.27 68.927 298.075 69.599 297.685C70.277 297.289 70.82 296.764 71.228 296.11C71.636 295.45 71.84 294.721 71.84 293.923C71.84 293.119 71.654 292.396 71.282 291.754C70.91 291.106 70.406 290.596 69.77 290.224C69.134 289.846 68.414 289.657 67.61 289.657C66.698 289.657 65.891 289.936 65.189 290.494L65.423 286.561H70.94V285.04H63.983L63.587 291.817L65.009 292.357C65.243 292.021 65.561 291.733 65.963 291.493C66.371 291.253 66.86 291.133 67.43 291.133C67.934 291.133 68.399 291.256 68.825 291.502C69.251 291.748 69.59 292.084 69.842 292.51C70.1 292.93 70.229 293.401 70.229 293.923C70.229 294.427 70.103 294.892 69.851 295.318C69.605 295.738 69.272 296.077 68.852 296.335C68.432 296.587 67.958 296.713 67.43 296.713C66.83 296.713 66.269 296.527 65.747 296.155C65.231 295.777 64.892 295.27 64.73 294.634L63.191 295.048C63.365 295.678 63.653 296.236 64.055 296.722C64.463 297.208 64.952 297.589 65.522 297.865C66.098 298.135 66.719 298.27 67.385 298.27ZM78.3664 298.27C79.2064 298.27 79.9564 298.081 80.6164 297.703C81.2764 297.325 81.7954 296.806 82.1734 296.146C82.5514 295.486 82.7404 294.736 82.7404 293.896V289.144C82.7404 288.304 82.5514 287.554 82.1734 286.894C81.7954 286.234 81.2764 285.715 80.6164 285.337C79.9564 284.959 79.2064 284.77 78.3664 284.77C77.5264 284.77 76.7764 284.959 76.1164 285.337C75.4564 285.715 74.9374 286.234 74.5594 286.894C74.1814 287.554 73.9924 288.304 73.9924 289.144V293.896C73.9924 294.736 74.1814 295.486 74.5594 296.146C74.9374 296.806 75.4564 297.325 76.1164 297.703C76.7764 298.081 77.5264 298.27 78.3664 298.27ZM78.3664 296.731C77.8624 296.731 77.4004 296.608 76.9804 296.362C76.5664 296.116 76.2364 295.786 75.9904 295.372C75.7444 294.952 75.6214 294.49 75.6214 293.986V289.045C75.6214 288.535 75.7444 288.073 75.9904 287.659C76.2364 287.245 76.5664 286.915 76.9804 286.669C77.4004 286.423 77.8624 286.3 78.3664 286.3C78.8764 286.3 79.3384 286.423 79.7524 286.669C80.1664 286.915 80.4964 287.245 80.7424 287.659C80.9884 288.073 81.1114 288.535 81.1114 289.045V293.986C81.1114 294.49 80.9884 294.952 80.7424 295.372C80.4964 295.786 80.1664 296.116 79.7524 296.362C79.3384 296.608 78.8764 296.731 78.3664 296.731Z" fill="#4B5067" fill-opacity="0.6"/>
    <path d="M78.3664 352.27C79.2064 352.27 79.9564 352.081 80.6164 351.703C81.2764 351.325 81.7954 350.806 82.1734 350.146C82.5514 349.486 82.7404 348.736 82.7404 347.896V343.144C82.7404 342.304 82.5514 341.554 82.1734 340.894C81.7954 340.234 81.2764 339.715 80.6164 339.337C79.9564 338.959 79.2064 338.77 78.3664 338.77C77.5264 338.77 76.7764 338.959 76.1164 339.337C75.4564 339.715 74.9374 340.234 74.5594 340.894C74.1814 341.554 73.9924 342.304 73.9924 343.144V347.896C73.9924 348.736 74.1814 349.486 74.5594 350.146C74.9374 350.806 75.4564 351.325 76.1164 351.703C76.7764 352.081 77.5264 352.27 78.3664 352.27ZM78.3664 350.731C77.8624 350.731 77.4004 350.608 76.9804 350.362C76.5664 350.116 76.2364 349.786 75.9904 349.372C75.7444 348.952 75.6214 348.49 75.6214 347.986V343.045C75.6214 342.535 75.7444 342.073 75.9904 341.659C76.2364 341.245 76.5664 340.915 76.9804 340.669C77.4004 340.423 77.8624 340.3 78.3664 340.3C78.8764 340.3 79.3384 340.423 79.7524 340.669C80.1664 340.915 80.4964 341.245 80.7424 341.659C80.9884 342.073 81.1114 342.535 81.1114 343.045V347.986C81.1114 348.49 80.9884 348.952 80.7424 349.372C80.4964 349.786 80.1664 350.116 79.7524 350.362C79.3384 350.608 78.8764 350.731 78.3664 350.731Z" fill="#4B5067" fill-opacity="0.6"/>
    <path d="M103.665 368.261C104.319 368.261 104.916 368.126 105.456 367.856C105.996 367.58 106.431 367.157 106.761 366.587C107.001 366.173 107.13 365.768 107.148 365.372C107.172 364.97 107.184 364.49 107.184 363.932V355.04H105.564V363.932C105.564 364.334 105.555 364.682 105.537 364.976C105.519 365.264 105.45 365.525 105.33 365.759C105.156 366.107 104.904 366.359 104.574 366.515C104.25 366.665 103.935 366.74 103.629 366.74C103.149 366.74 102.723 366.587 102.351 366.281C101.985 365.975 101.754 365.603 101.658 365.165L100.065 365.543C100.293 366.371 100.722 367.031 101.352 367.523C101.988 368.015 102.759 368.261 103.665 368.261ZM113.576 368.252C114.992 368.252 116.072 367.751 116.816 366.749V368H118.247V358.28H116.636V363.401C116.636 364.523 116.39 365.36 115.898 365.912C115.412 366.458 114.767 366.731 113.963 366.731C113.279 366.731 112.745 366.56 112.361 366.218C111.983 365.876 111.716 365.432 111.56 364.886C111.404 364.334 111.326 363.755 111.326 363.149V358.28H109.706V363.653C109.706 364.115 109.76 364.613 109.868 365.147C109.982 365.675 110.18 366.176 110.462 366.65C110.75 367.118 111.146 367.502 111.65 367.802C112.154 368.102 112.796 368.252 113.576 368.252ZM120.758 368H122.378V362.879C122.378 361.751 122.621 360.914 123.107 360.368C123.599 359.822 124.247 359.549 125.051 359.549C125.735 359.549 126.269 359.72 126.653 360.062C127.037 360.404 127.304 360.848 127.454 361.394C127.61 361.94 127.688 362.519 127.688 363.131V368H129.308V362.627C129.308 362.165 129.251 361.67 129.137 361.142C129.029 360.608 128.831 360.107 128.543 359.639C128.261 359.165 127.868 358.778 127.364 358.478C126.866 358.178 126.224 358.028 125.438 358.028C124.022 358.028 122.942 358.529 122.198 359.531V358.28H120.758V368ZM135.772 368.27C136.714 368.27 137.563 368.036 138.319 367.568C139.075 367.094 139.645 366.428 140.029 365.57L138.49 365.039C137.932 366.179 137.002 366.749 135.7 366.749C134.806 366.749 134.104 366.476 133.594 365.93C133.09 365.378 132.805 364.598 132.739 363.59H140.191C140.239 362.438 140.089 361.445 139.741 360.611C139.399 359.777 138.883 359.135 138.193 358.685C137.509 358.235 136.678 358.01 135.7 358.01C134.758 358.01 133.936 358.223 133.234 358.649C132.532 359.069 131.986 359.669 131.596 360.449C131.212 361.223 131.02 362.141 131.02 363.203C131.02 364.217 131.215 365.105 131.605 365.867C132.001 366.623 132.556 367.214 133.27 367.64C133.984 368.06 134.818 368.27 135.772 368.27ZM135.754 359.45C137.404 359.45 138.328 360.401 138.526 362.303H132.766C132.88 361.379 133.189 360.674 133.693 360.188C134.197 359.696 134.884 359.45 135.754 359.45Z" fill="#4B5067" fill-opacity="0.6"/>
    <path d="M969.795 368.261C970.449 368.261 971.046 368.126 971.586 367.856C972.126 367.58 972.561 367.157 972.891 366.587C973.131 366.173 973.26 365.768 973.278 365.372C973.302 364.97 973.314 364.49 973.314 363.932V355.04H971.694V363.932C971.694 364.334 971.685 364.682 971.667 364.976C971.649 365.264 971.58 365.525 971.46 365.759C971.286 366.107 971.034 366.359 970.704 366.515C970.38 366.665 970.065 366.74 969.759 366.74C969.279 366.74 968.853 366.587 968.481 366.281C968.115 365.975 967.884 365.603 967.788 365.165L966.195 365.543C966.423 366.371 966.852 367.031 967.482 367.523C968.118 368.015 968.889 368.261 969.795 368.261ZM979.706 368.252C981.122 368.252 982.202 367.751 982.946 366.749V368H984.377V358.28H982.766V363.401C982.766 364.523 982.52 365.36 982.028 365.912C981.542 366.458 980.897 366.731 980.093 366.731C979.409 366.731 978.875 366.56 978.491 366.218C978.113 365.876 977.846 365.432 977.69 364.886C977.534 364.334 977.456 363.755 977.456 363.149V358.28H975.836V363.653C975.836 364.115 975.89 364.613 975.998 365.147C976.112 365.675 976.31 366.176 976.592 366.65C976.88 367.118 977.276 367.502 977.78 367.802C978.284 368.102 978.926 368.252 979.706 368.252ZM987.077 368H988.679V354.77H987.077V368ZM992.729 372.32H994.286L999.578 358.28H997.949L995.105 365.93L992.072 358.28H990.389L994.331 367.964L992.729 372.32Z" fill="#4B5067" fill-opacity="0.6"/>
    <path d="M931 352V394" stroke="#F7F8FC" stroke-width="2" stroke-linecap="round" stroke-linejoin="round"/>
    <path d="M101.041 391.991H109.654V390.461H103.507L107.683 386.708C108.127 386.312 108.493 385.94 108.781 385.592C109.075 385.238 109.294 384.854 109.438 384.44C109.582 384.026 109.654 383.537 109.654 382.973C109.654 382.175 109.468 381.461 109.096 380.831C108.73 380.195 108.229 379.694 107.593 379.328C106.957 378.956 106.237 378.77 105.433 378.77C104.605 378.77 103.864 378.95 103.21 379.31C102.556 379.664 102.04 380.156 101.662 380.786C101.29 381.41 101.104 382.13 101.104 382.946H102.742C102.736 382.472 102.847 382.037 103.075 381.641C103.309 381.239 103.627 380.915 104.029 380.669C104.431 380.423 104.89 380.3 105.406 380.3C105.904 380.3 106.348 380.417 106.738 380.651C107.134 380.885 107.446 381.203 107.674 381.605C107.902 382.007 108.016 382.457 108.016 382.955C108.016 383.363 107.932 383.762 107.764 384.152C107.602 384.542 107.281 384.95 106.801 385.376L101.05 390.551L101.041 391.991ZM114.066 392H115.695V379.04H114.066L111.627 380.498V382.289L114.066 380.813V392Z" fill="#4B5067" fill-opacity="0.6"/>
    <path d="M184.577 391.991H193.19V390.461H187.043L191.219 386.708C191.663 386.312 192.029 385.94 192.317 385.592C192.611 385.238 192.83 384.854 192.974 384.44C193.118 384.026 193.19 383.537 193.19 382.973C193.19 382.175 193.004 381.461 192.632 380.831C192.266 380.195 191.765 379.694 191.129 379.328C190.493 378.956 189.773 378.77 188.969 378.77C188.141 378.77 187.4 378.95 186.746 379.31C186.092 379.664 185.576 380.156 185.198 380.786C184.826 381.41 184.64 382.13 184.64 382.946H186.278C186.272 382.472 186.383 382.037 186.611 381.641C186.845 381.239 187.163 380.915 187.565 380.669C187.967 380.423 188.426 380.3 188.942 380.3C189.44 380.3 189.884 380.417 190.274 380.651C190.67 380.885 190.982 381.203 191.21 381.605C191.438 382.007 191.552 382.457 191.552 382.955C191.552 383.363 191.468 383.762 191.3 384.152C191.138 384.542 190.817 384.95 190.337 385.376L184.586 390.551L184.577 391.991ZM194.983 391.991H203.596V390.461H197.449L201.625 386.708C202.069 386.312 202.435 385.94 202.723 385.592C203.017 385.238 203.236 384.854 203.38 384.44C203.524 384.026 203.596 383.537 203.596 382.973C203.596 382.175 203.41 381.461 203.038 380.831C202.672 380.195 202.171 379.694 201.535 379.328C200.899 378.956 200.179 378.77 199.375 378.77C198.547 378.77 197.806 378.95 197.152 379.31C196.498 379.664 195.982 380.156 195.604 380.786C195.232 381.41 195.046 382.13 195.046 382.946H196.684C196.678 382.472 196.789 382.037 197.017 381.641C197.251 381.239 197.569 380.915 197.971 380.669C198.373 380.423 198.832 380.3 199.348 380.3C199.846 380.3 200.29 380.417 200.68 380.651C201.076 380.885 201.388 381.203 201.616 381.605C201.844 382.007 201.958 382.457 201.958 382.955C201.958 383.363 201.874 383.762 201.706 384.152C201.544 384.542 201.223 384.95 200.743 385.376L194.992 390.551L194.983 391.991Z" fill="#4B5067" fill-opacity="0.6"/>
    <path d="M271.301 391.991H279.914V390.461H273.767L277.943 386.708C278.387 386.312 278.753 385.94 279.041 385.592C279.335 385.238 279.554 384.854 279.698 384.44C279.842 384.026 279.914 383.537 279.914 382.973C279.914 382.175 279.728 381.461 279.356 380.831C278.99 380.195 278.489 379.694 277.853 379.328C277.217 378.956 276.497 378.77 275.693 378.77C274.865 378.77 274.124 378.95 273.47 379.31C272.816 379.664 272.3 380.156 271.922 380.786C271.55 381.41 271.364 382.13 271.364 382.946H273.002C272.996 382.472 273.107 382.037 273.335 381.641C273.569 381.239 273.887 380.915 274.289 380.669C274.691 380.423 275.15 380.3 275.666 380.3C276.164 380.3 276.608 380.417 276.998 380.651C277.394 380.885 277.706 381.203 277.934 381.605C278.162 382.007 278.276 382.457 278.276 382.955C278.276 383.363 278.192 383.762 278.024 384.152C277.862 384.542 277.541 384.95 277.061 385.376L271.31 390.551L271.301 391.991ZM285.622 392.252C286.426 392.252 287.146 392.072 287.782 391.712C288.418 391.352 288.922 390.854 289.294 390.218C289.666 389.576 289.852 388.841 289.852 388.013C289.852 387.257 289.699 386.579 289.393 385.979C289.093 385.379 288.667 384.899 288.115 384.539C287.569 384.179 286.924 383.978 286.18 383.936L289.681 380.579V379.04H282.04V380.57H287.692L283.48 384.377L284.254 385.646C284.458 385.544 284.677 385.463 284.911 385.403C285.145 385.337 285.373 385.304 285.595 385.304C286.375 385.304 287.005 385.556 287.485 386.06C287.965 386.558 288.205 387.209 288.205 388.013C288.205 388.805 287.968 389.453 287.494 389.957C287.026 390.455 286.399 390.71 285.613 390.722C285.037 390.728 284.515 390.575 284.047 390.263C283.585 389.951 283.258 389.495 283.066 388.895L281.527 389.336C281.803 390.236 282.313 390.947 283.057 391.469C283.807 391.991 284.662 392.252 285.622 392.252Z" fill="#4B5067" fill-opacity="0.6"/>
    <path d="M357.761 391.991H366.374V390.461H360.227L364.403 386.708C364.847 386.312 365.213 385.94 365.501 385.592C365.795 385.238 366.014 384.854 366.158 384.44C366.302 384.026 366.374 383.537 366.374 382.973C366.374 382.175 366.188 381.461 365.816 380.831C365.45 380.195 364.949 379.694 364.313 379.328C363.677 378.956 362.957 378.77 362.153 378.77C361.325 378.77 360.584 378.95 359.93 379.31C359.276 379.664 358.76 380.156 358.382 380.786C358.01 381.41 357.824 382.13 357.824 382.946H359.462C359.456 382.472 359.567 382.037 359.795 381.641C360.029 381.239 360.347 380.915 360.749 380.669C361.151 380.423 361.61 380.3 362.126 380.3C362.624 380.3 363.068 380.417 363.458 380.651C363.854 380.885 364.166 381.203 364.394 381.605C364.622 382.007 364.736 382.457 364.736 382.955C364.736 383.363 364.652 383.762 364.484 384.152C364.322 384.542 364.001 384.95 363.521 385.376L357.77 390.551L357.761 391.991ZM373.774 392H375.394V389.615H376.744V388.094H375.394V384.449H373.774V388.094H369.634L373.909 379.04H372.091L367.816 388.094V389.615H373.774V392Z" fill="#4B5067" fill-opacity="0.6"/>
    <path d="M444.309 391.991H452.922V390.461H446.775L450.951 386.708C451.395 386.312 451.761 385.94 452.049 385.592C452.343 385.238 452.562 384.854 452.706 384.44C452.85 384.026 452.922 383.537 452.922 382.973C452.922 382.175 452.736 381.461 452.364 380.831C451.998 380.195 451.497 379.694 450.861 379.328C450.225 378.956 449.505 378.77 448.701 378.77C447.873 378.77 447.132 378.95 446.478 379.31C445.824 379.664 445.308 380.156 444.93 380.786C444.558 381.41 444.372 382.13 444.372 382.946H446.01C446.004 382.472 446.115 382.037 446.343 381.641C446.577 381.239 446.895 380.915 447.297 380.669C447.699 380.423 448.158 380.3 448.674 380.3C449.172 380.3 449.616 380.417 450.006 380.651C450.402 380.885 450.714 381.203 450.942 381.605C451.17 382.007 451.284 382.457 451.284 382.955C451.284 383.363 451.2 383.762 451.032 384.152C450.87 384.542 450.549 384.95 450.069 385.376L444.318 390.551L444.309 391.991ZM458.91 392.27C459.714 392.27 460.452 392.075 461.124 391.685C461.802 391.289 462.345 390.764 462.753 390.11C463.161 389.45 463.365 388.721 463.365 387.923C463.365 387.119 463.179 386.396 462.807 385.754C462.435 385.106 461.931 384.596 461.295 384.224C460.659 383.846 459.939 383.657 459.135 383.657C458.223 383.657 457.416 383.936 456.714 384.494L456.948 380.561H462.465V379.04H455.508L455.112 385.817L456.534 386.357C456.768 386.021 457.086 385.733 457.488 385.493C457.896 385.253 458.385 385.133 458.955 385.133C459.459 385.133 459.924 385.256 460.35 385.502C460.776 385.748 461.115 386.084 461.367 386.51C461.625 386.93 461.754 387.401 461.754 387.923C461.754 388.427 461.628 388.892 461.376 389.318C461.13 389.738 460.797 390.077 460.377 390.335C459.957 390.587 459.483 390.713 458.955 390.713C458.355 390.713 457.794 390.527 457.272 390.155C456.756 389.777 456.417 389.27 456.255 388.634L454.716 389.048C454.89 389.678 455.178 390.236 455.58 390.722C455.988 391.208 456.477 391.589 457.047 391.865C457.623 392.135 458.244 392.27 458.91 392.27Z" fill="#4B5067" fill-opacity="0.6"/>
    <path d="M531.024 391.991H539.637V390.461H533.49L537.666 386.708C538.11 386.312 538.476 385.94 538.764 385.592C539.058 385.238 539.277 384.854 539.421 384.44C539.565 384.026 539.637 383.537 539.637 382.973C539.637 382.175 539.451 381.461 539.079 380.831C538.713 380.195 538.212 379.694 537.576 379.328C536.94 378.956 536.22 378.77 535.416 378.77C534.588 378.77 533.847 378.95 533.193 379.31C532.539 379.664 532.023 380.156 531.645 380.786C531.273 381.41 531.087 382.13 531.087 382.946H532.725C532.719 382.472 532.83 382.037 533.058 381.641C533.292 381.239 533.61 380.915 534.012 380.669C534.414 380.423 534.873 380.3 535.389 380.3C535.887 380.3 536.331 380.417 536.721 380.651C537.117 380.885 537.429 381.203 537.657 381.605C537.885 382.007 537.999 382.457 537.999 382.955C537.999 383.363 537.915 383.762 537.747 384.152C537.585 384.542 537.264 384.95 536.784 385.376L531.033 390.551L531.024 391.991ZM546.209 392.27C547.013 392.27 547.748 392.078 548.414 391.694C549.086 391.304 549.623 390.782 550.025 390.128C550.427 389.468 550.628 388.736 550.628 387.932C550.628 387.128 550.442 386.405 550.07 385.763C549.704 385.115 549.2 384.602 548.558 384.224C547.922 383.846 547.202 383.657 546.398 383.657C545.816 383.657 545.267 383.777 544.751 384.017C544.241 384.257 543.797 384.584 543.419 384.998V383.234C543.419 382.718 543.542 382.238 543.788 381.794C544.04 381.344 544.388 380.984 544.832 380.714C545.276 380.438 545.783 380.3 546.353 380.3C546.833 380.3 547.28 380.414 547.694 380.642C548.108 380.864 548.444 381.161 548.702 381.533L549.899 380.471C549.479 379.925 548.96 379.508 548.342 379.22C547.73 378.926 547.067 378.779 546.353 378.779C545.465 378.779 544.679 378.977 543.995 379.373C543.311 379.769 542.771 380.315 542.375 381.011C541.985 381.707 541.79 382.508 541.79 383.414V387.725C541.79 388.589 541.985 389.366 542.375 390.056C542.771 390.74 543.302 391.28 543.968 391.676C544.64 392.072 545.387 392.27 546.209 392.27ZM546.209 390.722C545.693 390.722 545.222 390.596 544.796 390.344C544.376 390.092 544.04 389.756 543.788 389.336C543.542 388.91 543.419 388.442 543.419 387.932C543.419 387.416 543.545 386.948 543.797 386.528C544.049 386.102 544.385 385.763 544.805 385.511C545.231 385.259 545.702 385.133 546.218 385.133C546.734 385.133 547.202 385.259 547.622 385.511C548.048 385.763 548.384 386.102 548.63 386.528C548.882 386.948 549.008 387.416 549.008 387.932C549.008 388.448 548.882 388.919 548.63 389.345C548.378 389.765 548.039 390.101 547.613 390.353C547.193 390.599 546.725 390.722 546.209 390.722Z" fill="#4B5067" fill-opacity="0.6"/>
    <path d="M618.583 391.991H627.196V390.461H621.049L625.225 386.708C625.669 386.312 626.035 385.94 626.323 385.592C626.617 385.238 626.836 384.854 626.98 384.44C627.124 384.026 627.196 383.537 627.196 382.973C627.196 382.175 627.01 381.461 626.638 380.831C626.272 380.195 625.771 379.694 625.135 379.328C624.499 378.956 623.779 378.77 622.975 378.77C622.147 378.77 621.406 378.95 620.752 379.31C620.098 379.664 619.582 380.156 619.204 380.786C618.832 381.41 618.646 382.13 618.646 382.946H620.284C620.278 382.472 620.389 382.037 620.617 381.641C620.851 381.239 621.169 380.915 621.571 380.669C621.973 380.423 622.432 380.3 622.948 380.3C623.446 380.3 623.89 380.417 624.28 380.651C624.676 380.885 624.988 381.203 625.216 381.605C625.444 382.007 625.558 382.457 625.558 382.955C625.558 383.363 625.474 383.762 625.306 384.152C625.144 384.542 624.823 384.95 624.343 385.376L618.592 390.551L618.583 391.991ZM630.033 392H631.761L636.414 380.579V379.04H628.809V380.579H634.695L630.033 392Z" fill="#4B5067" fill-opacity="0.6"/>
    <path d="M704.463 391.991H713.076V390.461H706.929L711.105 386.708C711.549 386.312 711.915 385.94 712.203 385.592C712.497 385.238 712.716 384.854 712.86 384.44C713.004 384.026 713.076 383.537 713.076 382.973C713.076 382.175 712.89 381.461 712.518 380.831C712.152 380.195 711.651 379.694 711.015 379.328C710.379 378.956 709.659 378.77 708.855 378.77C708.027 378.77 707.286 378.95 706.632 379.31C705.978 379.664 705.462 380.156 705.084 380.786C704.712 381.41 704.526 382.13 704.526 382.946H706.164C706.158 382.472 706.269 382.037 706.497 381.641C706.731 381.239 707.049 380.915 707.451 380.669C707.853 380.423 708.312 380.3 708.828 380.3C709.326 380.3 709.77 380.417 710.16 380.651C710.556 380.885 710.868 381.203 711.096 381.605C711.324 382.007 711.438 382.457 711.438 382.955C711.438 383.363 711.354 383.762 711.186 384.152C711.024 384.542 710.703 384.95 710.223 385.376L704.472 390.551L704.463 391.991ZM719.279 392.27C720.107 392.27 720.839 392.105 721.475 391.775C722.117 391.445 722.618 390.983 722.978 390.389C723.344 389.789 723.527 389.093 723.527 388.301C723.527 387.629 723.383 387.011 723.095 386.447C722.807 385.883 722.384 385.421 721.826 385.061C722.282 384.743 722.624 384.347 722.852 383.873C723.08 383.399 723.194 382.88 723.194 382.316C723.194 381.584 723.026 380.954 722.69 380.426C722.354 379.898 721.892 379.49 721.304 379.202C720.716 378.914 720.041 378.77 719.279 378.77C718.517 378.77 717.842 378.914 717.254 379.202C716.666 379.49 716.204 379.898 715.868 380.426C715.532 380.954 715.364 381.584 715.364 382.316C715.364 382.874 715.481 383.393 715.715 383.873C715.949 384.347 716.291 384.74 716.741 385.052C716.171 385.418 715.745 385.883 715.463 386.447C715.187 387.005 715.049 387.623 715.049 388.301C715.049 389.093 715.229 389.786 715.589 390.38C715.949 390.974 716.447 391.439 717.083 391.775C717.719 392.105 718.451 392.27 719.279 392.27ZM719.279 384.314C718.625 384.314 718.091 384.149 717.677 383.819C717.269 383.483 717.065 382.982 717.065 382.316C717.065 381.65 717.269 381.152 717.677 380.822C718.091 380.486 718.625 380.318 719.279 380.318C719.939 380.318 720.473 380.486 720.881 380.822C721.289 381.152 721.493 381.65 721.493 382.316C721.493 382.982 721.289 383.483 720.881 383.819C720.473 384.149 719.939 384.314 719.279 384.314ZM719.279 390.74C718.523 390.74 717.911 390.533 717.443 390.119C716.975 389.699 716.741 389.093 716.741 388.301C716.741 387.503 716.972 386.897 717.434 386.483C717.902 386.063 718.517 385.853 719.279 385.853C720.047 385.853 720.662 386.063 721.124 386.483C721.592 386.897 721.826 387.503 721.826 388.301C721.826 389.093 721.589 389.699 721.115 390.119C720.647 390.533 720.035 390.74 719.279 390.74Z" fill="#4B5067" fill-opacity="0.6"/>
    <path d="M791.774 391.991H800.387V390.461H794.24L798.416 386.708C798.86 386.312 799.226 385.94 799.514 385.592C799.808 385.238 800.027 384.854 800.171 384.44C800.315 384.026 800.387 383.537 800.387 382.973C800.387 382.175 800.201 381.461 799.829 380.831C799.463 380.195 798.962 379.694 798.326 379.328C797.69 378.956 796.97 378.77 796.166 378.77C795.338 378.77 794.597 378.95 793.943 379.31C793.289 379.664 792.773 380.156 792.395 380.786C792.023 381.41 791.837 382.13 791.837 382.946H793.475C793.469 382.472 793.58 382.037 793.808 381.641C794.042 381.239 794.36 380.915 794.762 380.669C795.164 380.423 795.623 380.3 796.139 380.3C796.637 380.3 797.081 380.417 797.471 380.651C797.867 380.885 798.179 381.203 798.407 381.605C798.635 382.007 798.749 382.457 798.749 382.955C798.749 383.363 798.665 383.762 798.497 384.152C798.335 384.542 798.014 384.95 797.534 385.376L791.783 390.551L791.774 391.991ZM806.779 378.779C805.975 378.779 805.237 378.974 804.565 379.364C803.899 379.748 803.365 380.27 802.963 380.93C802.561 381.584 802.36 382.313 802.36 383.117C802.36 383.921 802.543 384.647 802.909 385.295C803.281 385.937 803.785 386.447 804.421 386.825C805.063 387.203 805.786 387.392 806.59 387.392C807.172 387.392 807.718 387.272 808.228 387.032C808.744 386.792 809.191 386.465 809.569 386.051V387.815C809.569 388.331 809.443 388.814 809.191 389.264C808.945 389.708 808.6 390.068 808.156 390.344C807.712 390.614 807.205 390.749 806.635 390.749C806.155 390.749 805.708 390.638 805.294 390.416C804.88 390.188 804.544 389.888 804.286 389.516L803.089 390.578C803.509 391.124 804.025 391.544 804.637 391.838C805.255 392.126 805.921 392.27 806.635 392.27C807.523 392.27 808.309 392.072 808.993 391.676C809.677 391.28 810.214 390.734 810.604 390.038C811 389.342 811.198 388.541 811.198 387.635V383.324C811.198 382.46 811 381.686 810.604 381.002C810.214 380.312 809.683 379.769 809.011 379.373C808.345 378.977 807.601 378.779 806.779 378.779ZM806.779 380.327C807.295 380.327 807.763 380.453 808.183 380.705C808.609 380.957 808.945 381.296 809.191 381.722C809.443 382.142 809.569 382.607 809.569 383.117C809.569 383.633 809.443 384.104 809.191 384.53C808.939 384.95 808.6 385.286 808.174 385.538C807.754 385.79 807.286 385.916 806.77 385.916C806.254 385.916 805.783 385.79 805.357 385.538C804.937 385.286 804.601 384.95 804.349 384.53C804.103 384.104 803.98 383.633 803.98 383.117C803.98 382.601 804.106 382.133 804.358 381.713C804.61 381.287 804.946 380.951 805.366 380.705C805.792 380.453 806.263 380.327 806.779 380.327Z" fill="#4B5067" fill-opacity="0.6"/>
    <path d="M883.369 392.252C884.173 392.252 884.893 392.072 885.529 391.712C886.165 391.352 886.669 390.854 887.041 390.218C887.413 389.576 887.599 388.841 887.599 388.013C887.599 387.257 887.446 386.579 887.14 385.979C886.84 385.379 886.414 384.899 885.862 384.539C885.316 384.179 884.671 383.978 883.927 383.936L887.428 380.579V379.04H879.787V380.57H885.439L881.227 384.377L882.001 385.646C882.205 385.544 882.424 385.463 882.658 385.403C882.892 385.337 883.12 385.304 883.342 385.304C884.122 385.304 884.752 385.556 885.232 386.06C885.712 386.558 885.952 387.209 885.952 388.013C885.952 388.805 885.715 389.453 885.241 389.957C884.773 390.455 884.146 390.71 883.36 390.722C882.784 390.728 882.262 390.575 881.794 390.263C881.332 389.951 881.005 389.495 880.813 388.895L879.274 389.336C879.55 390.236 880.06 390.947 880.804 391.469C881.554 391.991 882.409 392.252 883.369 392.252ZM894.313 392.27C895.153 392.27 895.903 392.081 896.563 391.703C897.223 391.325 897.742 390.806 898.12 390.146C898.498 389.486 898.687 388.736 898.687 387.896V383.144C898.687 382.304 898.498 381.554 898.12 380.894C897.742 380.234 897.223 379.715 896.563 379.337C895.903 378.959 895.153 378.77 894.313 378.77C893.473 378.77 892.723 378.959 892.063 379.337C891.403 379.715 890.884 380.234 890.506 380.894C890.128 381.554 889.939 382.304 889.939 383.144V387.896C889.939 388.736 890.128 389.486 890.506 390.146C890.884 390.806 891.403 391.325 892.063 391.703C892.723 392.081 893.473 392.27 894.313 392.27ZM894.313 390.731C893.809 390.731 893.347 390.608 892.927 390.362C892.513 390.116 892.183 389.786 891.937 389.372C891.691 388.952 891.568 388.49 891.568 387.986V383.045C891.568 382.535 891.691 382.073 891.937 381.659C892.183 381.245 892.513 380.915 892.927 380.669C893.347 380.423 893.809 380.3 894.313 380.3C894.823 380.3 895.285 380.423 895.699 380.669C896.113 380.915 896.443 381.245 896.689 381.659C896.935 382.073 897.058 382.535 897.058 383.045V387.986C897.058 388.49 896.935 388.952 896.689 389.372C896.443 389.786 896.113 390.116 895.699 390.362C895.285 390.608 894.823 390.731 894.313 390.731Z" fill="#4B5067" fill-opacity="0.6"/>
    <path d="M969.696 392H971.325V379.04H969.696L967.257 380.498V382.289L969.696 380.813V392Z" fill="#4B5067" fill-opacity="0.6"/>
    <path d="M1040.61 391.991H1049.23V390.461H1043.08L1047.26 386.708C1047.7 386.312 1048.07 385.94 1048.35 385.592C1048.65 385.238 1048.87 384.854 1049.01 384.44C1049.15 384.026 1049.23 383.537 1049.23 382.973C1049.23 382.175 1049.04 381.461 1048.67 380.831C1048.3 380.195 1047.8 379.694 1047.17 379.328C1046.53 378.956 1045.81 378.77 1045.01 378.77C1044.18 378.77 1043.44 378.95 1042.78 379.31C1042.13 379.664 1041.61 380.156 1041.23 380.786C1040.86 381.41 1040.68 382.13 1040.68 382.946H1042.31C1042.31 382.472 1042.42 382.037 1042.65 381.641C1042.88 381.239 1043.2 380.915 1043.6 380.669C1044 380.423 1044.46 380.3 1044.98 380.3C1045.48 380.3 1045.92 380.417 1046.31 380.651C1046.71 380.885 1047.02 381.203 1047.25 381.605C1047.47 382.007 1047.59 382.457 1047.59 382.955C1047.59 383.363 1047.5 383.762 1047.34 384.152C1047.17 384.542 1046.85 384.95 1046.37 385.376L1040.62 390.551L1040.61 391.991Z" fill="#4B5067" fill-opacity="0.6"/>
    <path d="M1121.25 392.252C1122.06 392.252 1122.78 392.072 1123.41 391.712C1124.05 391.352 1124.55 390.854 1124.92 390.218C1125.3 389.576 1125.48 388.841 1125.48 388.013C1125.48 387.257 1125.33 386.579 1125.02 385.979C1124.72 385.379 1124.3 384.899 1123.75 384.539C1123.2 384.179 1122.55 383.978 1121.81 383.936L1125.31 380.579V379.04H1117.67V380.57H1123.32L1119.11 384.377L1119.88 385.646C1120.09 385.544 1120.31 385.463 1120.54 385.403C1120.78 385.337 1121 385.304 1121.23 385.304C1122.01 385.304 1122.64 385.556 1123.12 386.06C1123.6 386.558 1123.84 387.209 1123.84 388.013C1123.84 388.805 1123.6 389.453 1123.12 389.957C1122.66 390.455 1122.03 390.71 1121.24 390.722C1120.67 390.728 1120.15 390.575 1119.68 390.263C1119.22 389.951 1118.89 389.495 1118.7 388.895L1117.16 389.336C1117.43 390.236 1117.94 390.947 1118.69 391.469C1119.44 391.991 1120.29 392.252 1121.25 392.252Z" fill="#4B5067" fill-opacity="0.6"/>
    <path d="M100.5 120.5H1127.5V174V228V282V335.5H100.5V282V228V174V120.5Z" stroke="#F7F8FC" stroke-linejoin="round"/>
    <path d="M101 257.397C124.513 257.397 167.797 236.258 186.5 236.258C205.203 236.258 250.091 224.179 272 224.179C293.909 224.179 336.659 260.921 357.5 260.921C378.341 260.921 420.556 236.258 443 236.258C465.444 236.258 506.591 273 528.5 273C550.409 273 593.159 221.159 614 221.159C634.841 221.159 674.919 212.603 699.5 212.603C724.081 212.603 762.022 197 785 197C807.978 197 850.728 221.159 870.5 221.159C890.272 221.159 935.694 229.212 956 229.212C976.306 229.212 1021.19 251.861 1041.5 251.861C1061.81 251.861 1108.3 236.258 1127 236.258" stroke="#00B9BD" stroke-width="2" stroke-linejoin="round"/>
    <path d="M186.5 236C167.797 236 124.513 257 101 257V336H1127V236C1108.3 236 1061.81 251.5 1041.5 251.5C1021.19 251.5 976.306 229 956 229C935.694 229 890.272 221 870.5 221C850.728 221 807.978 197 785 197C762.022 197 724.081 212.5 699.5 212.5C674.919 212.5 634.841 221 614 221C593.159 221 550.409 272.5 528.5 272.5C506.591 272.5 465.444 236 443 236C420.556 236 378.341 260.5 357.5 260.5C336.659 260.5 293.909 224 272 224C250.091 224 205.203 236 186.5 236Z" fill="url(#paint0_linear)" fill-opacity="0.11"/>
    <path d="M835 120V336" stroke="#4B6067" stroke-linecap="round" stroke-linejoin="round" stroke-dasharray="6 4"/>
    <circle opacity="0.2" cx="835" cy="210" r="9" fill="#00B9BD"/>
    <circle cx="835" cy="210" r="6" fill="#00B9BD"/>
    <g filter="url(#filter0_d)">
        <rect x="853" y="172" width="206" height="75" rx="24" fill="white"/>
        <path d="M883.842 217.3C884.775 217.3 885.609 217.09 886.342 216.67C887.075 216.25 887.652 215.673 888.072 214.94C888.492 214.207 888.702 213.373 888.702 212.44V207.16C888.702 206.227 888.492 205.393 888.072 204.66C887.652 203.927 887.075 203.35 886.342 202.93C885.609 202.51 884.775 202.3 883.842 202.3C882.909 202.3 882.075 202.51 881.342 202.93C880.609 203.35 880.032 203.927 879.612 204.66C879.192 205.393 878.982 206.227 878.982 207.16V212.44C878.982 213.373 879.192 214.207 879.612 214.94C880.032 215.673 880.609 216.25 881.342 216.67C882.075 217.09 882.909 217.3 883.842 217.3ZM883.842 215.59C883.282 215.59 882.769 215.453 882.302 215.18C881.842 214.907 881.475 214.54 881.202 214.08C880.929 213.613 880.792 213.1 880.792 212.54V207.05C880.792 206.483 880.929 205.97 881.202 205.51C881.475 205.05 881.842 204.683 882.302 204.41C882.769 204.137 883.282 204 883.842 204C884.409 204 884.922 204.137 885.382 204.41C885.842 204.683 886.209 205.05 886.482 205.51C886.755 205.97 886.892 206.483 886.892 207.05V212.54C886.892 213.1 886.755 213.613 886.482 214.08C886.209 214.54 885.842 214.907 885.382 215.18C884.922 215.453 884.409 215.59 883.842 215.59ZM891.302 219.24C891.922 219.353 892.402 219.233 892.742 218.88C893.088 218.527 893.262 218 893.262 217.3V214.74H891.302V217H892.332C892.365 217.4 892.322 217.74 892.202 218.02C892.088 218.307 891.825 218.437 891.412 218.41L891.302 219.24ZM901.928 217.3C902.861 217.3 903.695 217.09 904.428 216.67C905.161 216.25 905.738 215.673 906.158 214.94C906.578 214.207 906.788 213.373 906.788 212.44V207.16C906.788 206.227 906.578 205.393 906.158 204.66C905.738 203.927 905.161 203.35 904.428 202.93C903.695 202.51 902.861 202.3 901.928 202.3C900.995 202.3 900.161 202.51 899.428 202.93C898.695 203.35 898.118 203.927 897.698 204.66C897.278 205.393 897.068 206.227 897.068 207.16V212.44C897.068 213.373 897.278 214.207 897.698 214.94C898.118 215.673 898.695 216.25 899.428 216.67C900.161 217.09 900.995 217.3 901.928 217.3ZM901.928 215.59C901.368 215.59 900.855 215.453 900.388 215.18C899.928 214.907 899.561 214.54 899.288 214.08C899.015 213.613 898.878 213.1 898.878 212.54V207.05C898.878 206.483 899.015 205.97 899.288 205.51C899.561 205.05 899.928 204.683 900.388 204.41C900.855 204.137 901.368 204 901.928 204C902.495 204 903.008 204.137 903.468 204.41C903.928 204.683 904.295 205.05 904.568 205.51C904.841 205.97 904.978 206.483 904.978 207.05V212.54C904.978 213.1 904.841 213.613 904.568 214.08C904.295 214.54 903.928 214.907 903.468 215.18C903.008 215.453 902.495 215.59 901.928 215.59ZM909.188 216.99H918.758V215.29H911.928L916.568 211.12C917.061 210.68 917.468 210.267 917.788 209.88C918.114 209.487 918.358 209.06 918.517 208.6C918.678 208.14 918.758 207.597 918.758 206.97C918.758 206.083 918.551 205.29 918.138 204.59C917.731 203.883 917.174 203.327 916.468 202.92C915.761 202.507 914.961 202.3 914.067 202.3C913.148 202.3 912.324 202.5 911.598 202.9C910.871 203.293 910.298 203.84 909.878 204.54C909.464 205.233 909.258 206.033 909.258 206.94H911.078C911.071 206.413 911.194 205.93 911.448 205.49C911.708 205.043 912.061 204.683 912.508 204.41C912.954 204.137 913.464 204 914.038 204C914.591 204 915.084 204.13 915.518 204.39C915.958 204.65 916.304 205.003 916.558 205.45C916.811 205.897 916.938 206.397 916.938 206.95C916.938 207.403 916.844 207.847 916.658 208.28C916.478 208.713 916.121 209.167 915.588 209.64L909.198 215.39L909.188 216.99ZM925.1 217.28C925.993 217.28 926.793 217.08 927.5 216.68C928.207 216.28 928.767 215.727 929.18 215.02C929.593 214.307 929.8 213.49 929.8 212.57C929.8 211.73 929.63 210.977 929.29 210.31C928.957 209.643 928.483 209.11 927.87 208.71C927.263 208.31 926.547 208.087 925.72 208.04L929.61 204.31V202.6H921.12V204.3H927.4L922.72 208.53L923.58 209.94C923.807 209.827 924.05 209.737 924.31 209.67C924.57 209.597 924.823 209.56 925.07 209.56C925.937 209.56 926.637 209.84 927.17 210.4C927.703 210.953 927.97 211.677 927.97 212.57C927.97 213.45 927.707 214.17 927.18 214.73C926.66 215.283 925.963 215.567 925.09 215.58C924.45 215.587 923.87 215.417 923.35 215.07C922.837 214.723 922.473 214.217 922.26 213.55L920.55 214.04C920.857 215.04 921.423 215.83 922.25 216.41C923.083 216.99 924.033 217.28 925.1 217.28Z" fill="#4B6067"/>
        <path d="M991.22 216H993.189L997.666 209.345L1002.15 216H1004.11L998.634 207.981L1003.98 200.16H1002.01L997.666 206.628L993.321 200.16H991.363L996.709 207.981L991.22 216ZM1011.63 216.33C1013.47 216.33 1014.97 215.861 1016.14 214.922C1017.3 213.976 1018.1 212.711 1018.54 211.127L1016.89 210.698C1016.55 211.945 1015.94 212.938 1015.07 213.679C1014.2 214.412 1013.05 214.779 1011.63 214.779C1010.39 214.779 1009.35 214.497 1008.52 213.932C1007.69 213.36 1007.06 212.572 1006.65 211.567C1006.24 210.562 1006.03 209.4 1006.04 208.08C1006.06 206.76 1006.27 205.598 1006.68 204.593C1007.09 203.581 1007.71 202.793 1008.53 202.228C1009.36 201.663 1010.39 201.381 1011.63 201.381C1013.05 201.381 1014.2 201.751 1015.07 202.492C1015.94 203.225 1016.55 204.215 1016.89 205.462L1018.54 205.033C1018.1 203.449 1017.3 202.188 1016.14 201.249C1014.97 200.303 1013.47 199.83 1011.63 199.83C1010.05 199.83 1008.72 200.178 1007.64 200.875C1006.55 201.572 1005.73 202.54 1005.17 203.779C1004.61 205.018 1004.34 206.452 1004.34 208.08C1004.34 209.701 1004.61 211.134 1005.17 212.381C1005.73 213.62 1006.55 214.588 1007.64 215.285C1008.72 215.982 1010.05 216.33 1011.63 216.33ZM1020.96 216H1022.58V208.85H1031.34V216H1032.94V200.16H1031.34V207.299H1022.58V200.16H1020.96V216Z" fill="#4B5067" fill-opacity="0.6"/>
    </g>
    <defs>
        <filter id="filter0_d" x="829" y="160" width="254" height="123" filterUnits="userSpaceOnUse" color-interpolation-filters="sRGB">
            <feFlood flood-opacity="0" result="BackgroundImageFix"/>
            <feColorMatrix in="SourceAlpha" type="matrix" values="0 0 0 0 0 0 0 0 0 0 0 0 0 0 0 0 0 0 127 0"/>
            <feOffset dy="12"/>
            <feGaussianBlur stdDeviation="12"/>
            <feColorMatrix type="matrix" values="0 0 0 0 0 0 0 0 0 0 0 0 0 0 0 0 0 0 0.12 0"/>
            <feBlend mode="normal" in2="BackgroundImageFix" result="effect1_dropShadow"/>
            <feBlend mode="normal" in="SourceGraphic" in2="effect1_dropShadow" result="shape"/>
        </filter>
        <linearGradient id="paint0_linear" x1="614" y1="197" x2="614" y2="336" gradientUnits="userSpaceOnUse">
            <stop stop-color="#00B9BD"/>
            <stop offset="1" stop-color="#00B9BD" stop-opacity="0"/>
        </linearGradient>
    </defs>
</svg>
